<?xml version="1.0" encoding="UTF-8"?>
<svg id="Hands" xmlns="http://www.w3.org/2000/svg" viewBox="0 0 869.61 676.73">
  <defs>
    <style>
      .cls-1, .cls-2 {
        stroke-width: 0px;
      }

      .cls-2 {
        fill: #fff;
      }
    </style>
  </defs>
  <rect class="cls-2" x="212.6" y="106.03" width="550" height="450"/>
  <g>
    <path class="cls-1" d="m868.15,117.39c-.64-.55-1.1-.64-1.1-.64,0,0,.37.18.91.82.55.55.82,1.73.37,3.1-.82,2.65-3.47,5.84-7.21,9.13-5.29-.46-8.67-.27-8.67-.27,0,0,2.19,1,6.12,2.37-1,.73-2.1,1.55-3.29,2.19-4.02-.64-7.21-1.64-9.49-2.56-2.74-1.1-4.2-1.83-4.2-1.83,0,0,1.19,1.1,3.65,2.74,1.64,1.1,3.93,2.28,6.85,3.38-1.1.55-2.19,1-3.38,1.37-8.03-2.65-13.05-4.02-13.05-4.02,0,0,3.38,2.01,9.49,5.11-.27.09-.46.09-.73.18-1.55.37-3.1.64-4.75.82-2.83-.55-5.11-1.28-6.76-2.01-2.1-.91-3.19-1.55-3.19-1.55,0,0,.82.91,2.65,2.37.64.46,1.46,1,2.28,1.55-4.02.18-8.31-.09-12.6-.64-3.93-.46-7.76-1.46-11.41-2.46-3.65-1-7.21-2.19-10.59-3.38-6.66-2.37-12.69-4.84-17.62-7.03-1.1-.46-2.1-.91-3.1-1.37,2.92.18,5.39.27,7.21.27h3.38s-4.66-1.1-12.14-2.83c-2.1-.55-4.47-1.1-7.03-1.73-1.28-.64-14.61-3.56-22-5.39-10.41-2.56-19.9-4.66-27.29-6.3,1.1-.73,2.1-1.46,2.83-2.01,2.1-1.64,3.29-2.56,3.29-2.56,0,0-1.28.73-3.74,1.92-1.28.64-2.74,1.37-4.56,2.19-.91.46-1.92.91-3.01,1.37-.82.37-1.73.73-2.65,1.19-.64,0-.73.18-.73.27.09,0,.27-.09.46-.09-.18.09-.27.09-.46.18,0,0-21.18,7.76-34.32,11.87-13.88,4.56-26.47,8.12-35.69,10.77q-.09,0-.18.09c-.82.27-1.64.46-2.46.64-7.67,2.1-12.41,3.19-12.41,3.19,0,0,3.83-.09,10.22-.82l-.37.37-1.64,1.64h0c-1.28,1.19-2.74,2.28-4.29,3.47-.37-2.74-.64-4.29-.64-4.29,0,0-.64,2.1-1.28,5.75-.82.55-1.73,1.19-2.56,1.73-.09-.91-.09-1.64,0-2.28.09-1.37.18-2.1.18-2.1,0,0-.55.55-1.19,1.83-.46.91-1,2.28-1.28,4.02-.55.27-1,.64-1.55.91-.09-2.1-.27-3.38-.27-3.38,0,0-1,1.73-2.1,4.75-.55.27-1.1.55-1.64.82-.37-3.29-.73-5.29-.73-5.29,0,0-.73,2.37-1.46,6.48-1.19.64-2.46,1.19-3.74,1.83-.37.18-.73.37-1.19.55.09-1.83.09-3.47,0-4.66-.18-2.1-.37-3.29-.37-3.29,0,0-.18,1.1-.64,3.19-.37,1.55-.82,3.56-1.55,5.93-1.55.73-3.19,1.46-4.66,2.1.64-6.12.73-9.86.73-9.86,0,0-1.55,4.11-3.47,11.14-1.19.55-2.37,1.1-3.47,1.64,1.46-8.03,2.01-13.05,2.01-13.05,0,0-2.19,5.39-5.2,14.51h.18c-1,.55-2.01,1-3.01,1.46,1.46-4.56,2.28-8.4,2.83-11.23.64-3.47.91-5.39.91-5.39,0,0-.64,1.73-1.83,5.02-1.19,3.19-3.01,7.94-5.66,13.6h0c-.91.46-1.73,1-2.56,1.46l-.09.09c2.83-6.39,4.2-11.87,4.84-15.79.73-4.2.82-6.48.82-6.48,0,0-.55,2.19-1.83,6.21-.64,2.01-1.55,4.56-2.74,7.39.09-.46.27-.91.37-1.37,1-4.29,1.55-7.85,1.83-10.32.18-2.46.27-3.83.27-3.83,0,0-.37,1.28-1,3.65-.73,2.37-1.83,5.66-3.38,9.77-1.83,4.75-7.3,16.71-7.3,16.71,0,0-16.89,32.59-21.09,39.53-.46.27-.82.64-1.19.91,0,0-.09,0-.09.09-.18-.09-.37-.18-.64-.27l.18.09c14.88-35.69,23.83-58.33,23.83-58.33,0,0-10.04,21-26.11,56.32,2.01-11.78,4.56-21.27,6.57-27.84,2.01-6.76,3.38-10.5,3.38-10.5,0,0-1.73,3.47-4.29,9.95-2.46,6.39-5.75,15.79-8.49,27.84-.27-.18-.64-.27-.91-.46v-.91c.18-5.48,1.19-12.96,2.83-21.09,1.73-8.12,3.65-15.34,5.57-20.54.46-1.28.91-2.46,1.37-3.47s.82-1.92,1.19-2.56c.73-1.37,1.1-2.19,1.1-2.19,0,0-.64.64-1.73,1.73-.55.55-1.19,1.37-1.83,2.19-.73.91-1.46,1.92-2.19,3.1-3.1,4.75-6.39,12.05-8.22,20.63-1.64,8.22-1.64,15.97-.64,21.54-1.28-.73-2.56-1.46-3.74-2.28.18-4.47.46-8.49.55-12.05.18-3.56.18-6.66.55-9.13.27-2.46.91-4.29,1.46-5.48s1-1.83,1-1.83c0,0-.46.46-1.19,1.64-.73,1.1-1.55,2.92-2.19,5.39-.64,2.46-1,5.57-1.55,9.13-.46,3.38-.82,6.39-1.37,10.5-.55-.37-1.1-.82-1.64-1.19l-.18-.55c.73-11.96.73-19.53.73-19.53,0,0-1.55,6.66-3.47,17.8-3.56-3.01-5.93-5.84-7.39-8.03-.46-.64-.82-1.28-1.1-1.73-.27-.55-.55-1-.73-1.37l-.55-1.1.55,1.1c.18.37.37.82.64,1.37.27.55.64,1.1,1.1,1.83,1.46,2.37,4.02,5.66,7.94,9.13l.27.27c.18.18.37.37.37.37,0,0,.09.09.27.18.18.18.37.27.55.46,2.65,2.19,5.75,4.38,9.4,6.57.73.46,1.46.82,2.19,1.28,1.64.91,3.38,1.83,5.2,2.74.18.09.46.18.64.27.09.09.27.09.37.18.82.37,1.64.82,2.46,1.19,2.92,1.37,5.93,2.65,9.22,3.93,1.64.64,3.29,1.28,5.02,1.83,3.74,1.28,7.67,2.56,11.78,3.74,10.5,2.92,22.18,5.48,34.96,6.94,6.02.73,12.32,1.19,18.8,1.28h2.92c6.3.09,12.6-.09,19.08.18,7.03.27,14.15,1.19,21.18,3.38,3.47,1,6.94,2.28,10.41,3.74,1.73.73,3.47,1.46,5.29,2.28,1.73.82,3.56,1.64,5.29,2.46,7.03,3.38,14.15,6.76,20.36,11.32,2.37,1.73,4.56,3.65,6.48,5.75-2.1-1.46-4.29-2.74-6.48-3.83-7.21-3.65-13.97-7.03-20.45-9.95-12.96-5.93-24.74-9.68-34.78-11.05-9.95-1.55-17.89-.91-23.09,0-2.65.46-4.56.91-5.93,1.28-1.28.37-2.01.55-2.01.55,0,0,.64-.18,1.92-.46,1.28-.27,3.19-.73,5.75-1.1,5.11-.64,12.87-1.1,22.64.64,9.77,1.64,21.36,5.57,34.05,11.68,6.39,3.1,13.15,6.57,20.27,10.41,3.47,1.92,7.03,4.11,10.04,6.85,1.28,1.19,2.46,2.46,3.56,3.93.46,1.1.82,2.19,1,3.38.91,3.65.91,7.58,0,11.05-.64,2.46-1.73,4.66-3.29,6.48.37-.64.73-1.37.91-1.92.27-.91.55-1.73.64-2.46.18-.73.27-1.37.27-1.83.09-1,.09-1.55.09-1.55,0,0-.09.55-.27,1.46-.09.46-.27,1.1-.46,1.73-.18.73-.55,1.46-.91,2.28-.82,1.64-2.28,3.47-4.56,4.47-2.28,1.1-5.29,1.28-8.49.91-5.93-.73-12.6-3.29-19.81-6.39-.73-.37-1.46-.64-2.28-1-.55-.27-1.1-.46-1.55-.73-18.62-7.67-18.71-23.19-11.87-26.29,2.01-.91,4.2-1.37,6.3-1.55.55-.09,1-.09,1.46,0l.64.09.82.09h.18c1.1.18,2.19.37,3.19.46.55.09,1,.18,1.55.27,8.22,1.28,15.52,2.65,21.36,5.11,6.12,2.46,10.41,6.02,12.51,9.13.46.82.91,1.55,1.28,2.1.37.64.55,1.19.73,1.64.37.91.64,1.37.64,1.37,0,0-.18-.55-.37-1.46-.18-.46-.27-1.1-.55-1.83-.27-.64-.64-1.46-1.1-2.37-1.73-3.47-5.84-7.76-12.05-10.95-6.12-3.19-13.97-5.29-22.64-7.03-.18,0-.37-.09-.55-.09-1.1-.18-2.19-.46-3.38-.64l-.82-.18h-.09c-.27-.09-.64-.09-1-.18-.73-.09-1.37-.09-2.1-.09-2.65.09-5.2.73-7.76,1.64-1.28.46-2.56,1-3.83,2.01-1.37,1-2.37,2.46-3.01,3.93-.46,1.1-.73,2.19-.91,3.29-.46.09-.91.18-1.37.27-1.46-.09-2.74,0-3.74.18h0v1c1.28.18,3.01.64,4.84,1.46v2.46c0,.64.09,1.19.18,1.83-3.01-1-5.75-1.19-7.67-1.1-2.46.09-3.83.46-3.83.46,0,0,1.37.09,3.65.55,2.19.46,5.39,1.46,8.76,3.56.46.91.82,1.64,1.37,2.46-9.04-1-14.7-1.28-14.7-1.28,0,0,6.21,1.92,16.71,4.47v-.18c.27.37.55.64.73,1l-.18.27c-5.84-.37-10.5-.09-13.78.18-3.83.37-5.84.73-5.84.73,0,0,2.01,0,5.75.09,3.74.18,9.22.55,16.16,1.73l1.19.18.27.27.46.37c.27.18.46.27.73.46s.37.18.55.27l.09.09h.09l.27.09.18.09.82.27c.46.18.82.37,1.28.46-4.56-1-9.68-1.83-15.15-2.1-9.86-.37-18.53.46-24.92.27-3.19-.09-5.75-.18-7.49-.37s-2.74-.27-2.74-.27c0,0,.91.27,2.65.73s4.29,1,7.49,1.46c6.39.91,15.24.91,24.83,1.28s18.17,1.83,24.37,3.29c2.28.55,4.2,1,5.84,1.46,6.02,2.1,11.78,3.56,17.07,3.74.91,0,1.83,0,2.65-.09-.64.09-1.28.18-1.92.27-3.65.37-7.49.09-11.23-.46-3.01-.46-5.93-.91-8.85-1.37h0c-3.1-.46-9.49-1.46-12.51-1.92-.27,0-.46-.09-.73-.09-7.58-1.19-15.06-2.28-22.36-3.19-.73-.09-1.46-.18-2.28-.27-1.64-.18-3.38-.46-5.02-.64-11.59-1.37-22.82-2.46-33.41-2.92-12.78-.55-24.74-.46-35.6.37-21.73,1.64-38.89,6.3-50.3,10.41-2.46.91-4.66,1.73-6.57,2.46-2.56-.46-5.48-1-8.67-1.64,1-.64,1.83-1.19,2.37-1.64,1.1-.82,1.64-1.19,1.64-1.19,0,0-.64.37-1.73,1.1-.73.46-1.64,1-2.74,1.73-3.74-.73-7.76-1.64-11.96-2.65-4.11-1-7.94-2.01-11.5-2.92-3.47-1-6.66-1.92-9.31-2.92-1.37-.46-2.56-.91-3.56-1.28-1.1-.37-1.92-.73-2.65-1-1.46-.55-2.28-.91-2.28-.91,0,0,.64.55,1.92,1.55.64.55,1.37,1.1,2.37,1.73.91.64,2.01,1.37,3.29,2.1,2.46,1.55,5.48,3.01,8.95,4.56,3.47,1.46,7.49,2.74,11.68,3.83,2.28.55,4.56.91,6.76,1.28-2.74,1.28-5.84,2.74-9.49,4.2-3.29-.37-6.76-.73-10.41-1-9.04-.73-17.16-1.46-23.09-1.92-3.01-.27-5.39-.55-7.03-.73-1.64-.18-2.65-.27-2.65-.27,0,0,.82.37,2.37,1,1.55.64,3.83,1.46,6.76,2.37,5.75,1.73,13.97,3.56,23.09,4.38h.64c-7.85,2.74-16.98,5.39-27.11,7.49-5.93,1.19-12.23,2.01-18.71,1.83-6.3-.37-12.87-2.37-19.26-5.11s-12.32-6.02-18.17-9.22-11.41-6.21-16.8-9.13c-10.77-5.75-20.45-10.86-28.57-15.24-16.34-8.49-26.47-13.78-26.47-13.78,0,0,9.86,5.75,25.74,15.06,8.03,4.56,17.53,10.04,28.12,16.16,5.29,3.01,10.86,6.12,16.61,9.4,5.75,3.19,11.78,6.66,18.35,9.49,6.57,2.83,13.33,4.93,20.27,5.2,6.85.09,13.24-.91,19.26-2.19,11.78-2.65,22-6.21,30.4-9.68,2.19.09,4.29.18,6.3.18-3.19,1.28-6.57,2.65-10.04,4.02-6.94,2.74-14.51,5.29-22.64,7.3-8.03,1.92-16.8,3.29-25.56,2.46-8.76-.91-17.62-4.11-26.29-8.12-10.68-5.11-20.45-11.23-29.94-17.07-.37-.18-.64-.37-1-.64-5.57-3.47-11.05-6.85-16.43-9.95-14.88-8.49-29.48-14.06-42.45-15.7-12.96-1.73-23.55.73-30.12,3.56-1.64.64-3.1,1.37-4.29,2.01-1.28.64-2.28,1.19-3.1,1.64-1.64,1-2.46,1.46-2.46,1.46,0,0,.91-.46,2.56-1.28.82-.46,1.92-.91,3.19-1.46s2.74-1.19,4.38-1.73c6.66-2.37,17.07-4.2,29.48-1.92,2.01.37,4.02.82,6.12,1.37-5.93,9.13-10.32,16.89-13.24,22.36-3.01,5.75-4.56,8.95-4.56,8.95,0,0,1.92-2.92,5.39-8.31,3.47-5.29,8.58-12.96,15.34-22.18,1.37.46,2.83.91,4.29,1.37-10.95,16.52-19.81,30.67-25.74,40.71-6.21,10.41-9.58,16.34-9.58,16.34,0,0,3.65-5.48,10.22-15.52,6.48-9.77,16.07-23.73,28.48-40.71,1.46.55,3.01,1.19,4.56,1.83-11.5,15.7-21.73,30.12-29.94,43.45-8.49,13.51-14.7,25.83-19.08,36.24-4.38,10.41-6.94,18.8-8.49,24.56-.73,2.83-1.19,5.11-1.55,6.57-.37,1.46-.55,2.28-.55,2.28,0,0,.82-2.92,2.28-8.58,1.73-5.57,4.38-13.78,8.95-23.92,4.56-10.13,11.05-22.18,19.72-35.51,8.58-13.33,19.26-27.84,31.31-43.82,1.37.64,2.83,1.28,4.29,2.01-10.68,13.33-19.35,27.2-26.75,40.71-7.49,13.78-13.6,27.29-18.71,40.17-5.2,12.87-9.49,25.01-13.24,36.24-3.83,11.23-7.03,21.63-9.95,30.95-5.75,18.62-10.22,33.23-13.24,43.09-3.19,9.86-4.84,14.97-4.84,14.97,0,0,1.73-5.02,5.02-14.61,3.19-9.58,7.85-23.83,13.78-42.26,3.01-9.22,6.3-19.44,10.22-30.58,3.83-11.14,8.4-23.28,13.6-36.06,5.2-12.78,11.59-26.29,19.08-40.07,7.58-13.69,16.52-27.75,27.57-41.26,1,.55,2.1,1.1,3.1,1.73-9.86,14.06-18.07,28.3-25.1,42.08-7.21,14.24-13.24,27.93-18.35,41.08s-9.4,25.47-13.05,36.97c-.91,2.83-1.83,5.66-2.65,8.4s-1.64,5.48-2.46,8.12c-1.64,5.29-3.01,10.32-4.38,15.06-5.29,19.08-9.13,34.14-11.68,44.27s-3.93,15.52-3.93,15.52c0,0,1.37-5.2,4.11-15.15,2.74-9.95,6.66-24.65,12.23-43.54,5.66-18.8,12.78-41.99,23.19-68.1,5.11-13.05,11.41-26.84,18.71-41.08,7.21-13.97,15.7-28.3,25.83-42.45,1.55.91,3.1,1.83,4.66,2.74.09.09.18.18.37.18-12.78,18.26-24.92,35.97-34.41,53.95-5.02,9.4-9.31,18.8-12.87,28.21-3.56,9.4-6.39,18.62-8.95,27.66-5.02,18.07-8.85,35.05-12.87,50.57-4.02,15.52-8.12,29.58-12.14,42.17-7.94,25.19-15.34,44.46-20.54,57.42-2.56,6.48-4.66,11.41-6.02,14.7s-2.1,5.02-2.1,5.02c0,0,.73-1.64,2.1-4.84s3.47-7.94,6.12-14.33c5.29-12.69,12.78-31.49,21-56.41,4.11-12.51,8.4-26.47,12.6-41.9,4.29-15.43,8.22-32.5,13.33-50.48,2.56-9.04,5.57-18.26,9.04-27.66,3.56-9.31,7.85-18.8,12.96-28.12,9.68-17.98,22.09-35.87,35.24-54.41,1.92,1.19,3.83,2.37,5.75,3.65-8.58,10.22-16.8,20.54-24.01,31.13-7.58,11.14-13.97,22.64-18.62,34.6-4.66,11.96-7.67,23.92-10.22,35.69-2.56,11.68-4.66,23.09-7.03,34.05-4.75,21.82-10.77,41.81-17.07,59.97-6.3,18.17-12.78,34.51-18.99,49.11-12.41,29.12-23.19,51.39-30.4,66.46-2.83,5.93-5.2,10.68-6.94,14.33,0,0,0,.09.09.09,1.73-3.56,4.02-8.12,6.85-13.88,7.21-14.79,18.07-36.51,30.67-65.27,12.51-28.85,27.02-64.81,37.24-108.81,2.46-10.95,4.66-22.46,7.3-34.23,2.65-11.68,5.66-23.73,10.32-35.6,4.56-11.87,10.95-23.37,18.62-34.51,7.3-10.77,15.79-21.18,24.65-31.58,1.37.91,2.74,1.83,4.2,2.74-1.83,1.92-3.74,3.93-5.66,6.12-1.46,1.64-2.92,3.47-4.38,5.39-1.37,1.92-2.83,3.93-4.2,6.02-1.46,2.01-2.83,4.29-4.29,6.48-.73,1.1-1.46,2.28-2.19,3.38-.73,1.19-1.37,2.37-2.1,3.56-5.75,9.58-11.41,20.54-16.52,32.68-5.11,12.14-9.77,25.47-13.78,39.8-4.02,14.24-7.49,29.39-10.59,45.19-.73,3.93-1.55,7.85-2.28,11.87-.82,3.83-1.92,7.85-3.01,11.78-2.28,7.94-4.84,15.88-7.58,23.92s-5.57,15.88-8.49,23.55c-3.01,7.58-6.48,14.97-9.68,22.36-6.57,14.61-12.96,28.66-19.44,41.9-6.39,13.24-12.41,24.83-13.6,26.93.55,1.19-7.94,18.9-7.49,20.17,1.64-2.74,3.29-5.48,4.93-8.31,6.57-11.41,13.24-23.73,19.9-36.97,6.66-13.24,13.33-27.2,19.99-41.81,3.29-7.3,6.85-14.7,9.95-22.46,3.1-7.76,5.93-15.7,8.67-23.83,2.74-8.12,5.29-16.16,7.58-24.19,1.1-4.02,2.19-8.03,3.1-12.14.82-4.11,1.46-8.03,2.19-11.96,2.92-15.7,7.12-27.84,10.95-42.08,3.74-14.15,9.22-30.85,14.24-42.9,15.61-37.52,37.97-59.52,39.34-61.25,8.31,5.39,17.16,10.77,26.84,15.43,8.95,4.2,18.35,7.58,27.93,8.4,9.68.73,18.71-.91,27.02-3.1,8.31-2.28,16.07-4.84,22.82-8.22,72.39-35.6,160.02-24.65,161.03-20.17.18,1.1,4.02,16.07,4.29,17.16.37,1.1.91,2.19,1.37,3.29,1.1,2.01,2.37,3.93,3.83,5.48,2.92,3.19,6.21,5.39,9.4,6.94,3.19,1.55,6.3,2.28,8.95,3.19,4.38,1.55,8.49.82,10.77.73-.18.09-.37.18-.46.27,0,0-.09,0,0,0,.18,0,.09,0,0,0,1.19-.46,2.56,0,4.47-.82-.09-3.83-.09-10.22-.37-16.43-.18-4.84-.46-10.41-.64-16.43,2.65.46,5.39.91,8.03,1.37,3.93.55,8.03.91,12.32.55,4.2-.37,8.67-1.64,12.32-4.47,3.65-2.74,6.3-6.94,7.39-11.32.55-2.19.82-4.47.82-6.66s-.27-4.47-.82-6.66c-1-4.38-3.01-8.49-5.75-11.96-2.65-3.47-5.84-6.39-9.22-8.85-6.76-4.93-14.15-8.31-21.18-11.68-2.74-1.28-5.39-2.46-8.12-3.65-1.1-5.84-2.37-11.41-3.93-16.89-.55-1.64-1.1-3.29-1.92-4.84-.82-1.64-2.01-3.19-3.38-4.29-1.28-1.19-2.56-2.01-3.65-2.92s-2.1-1.92-3.01-2.92c-5.66-6.39-11.05-12.41-15.88-17.71,10.68,4.93,20.63,8.58,29.48,10.5,7.21,1.55,13.51,1.73,18.35.91,5.39,4.47,12.51,9.77,20.63,14.79,8.76,5.48,17.25,9.68,24.01,12.41,1.83,3.01,4.11,6.48,6.85,10.32,2.28,3.19,5.02,6.66,8.12,10.22,1.55,1.73,3.29,3.56,5.11,5.29.91.91,1.92,1.73,2.92,2.56,1.1.82,2.1,1.64,3.38,2.37.64.37,1.28.73,1.92,1l1.73.91c1.19.64,2.37,1.19,3.65,1.83,2.46,1.19,5.11,2.46,8.12,3.29,3.01.82,6.39,1.1,9.58.46,3.29-.64,6.3-1.92,9.04-3.65,1.37-.82,2.65-1.73,3.93-2.74l1.83-1.46c1.19-.73,1.92-2.1,1.83-3.56-.09-.64-.27-1.55-.37-1.92-.18-.46-.27-.82-.46-1.19-.27-.73-.64-1.46-1-2.1-.73-1.37-1.46-2.65-2.19-3.83-2.56-4.11-5.2-7.94-7.76-11.5,1.1.46,2.1.82,3.19,1.19,4.38,1.55,8.49,2.56,11.96,3.1,1.73.37,5.84,1.1,7.21,1.28.73.09,6.12.37,13.33-1.83,1.73-.55,3.56-1.37,5.39-2.37.91-.46,1.83-1,2.83-1.64.46-.27.91-.64,1.37-.91.27-.18.46-.37.73-.55.09-.09.18-.09.37-.37.18-.18.37-.27.55-.46.46-.27.64-.64.91-.91.18-.37.27-.82.27-1.28,0-.82-.46-1.92-.82-2.65-.64-1.19-1.28-2.19-2.01-3.19-1.46-2.01-3.1-4.02-4.84-6.02-3.47-4.02-7.3-8.03-11.41-12.14-11.78-11.68-23.19-21.45-31.58-28.48-.18-.18-.37-.37-.55-.46-.18-.27-.37-.55-.55-.82-1.83-2.65-4.84-6.3-8.85-10.32-4.11-4.11-9.22-8.58-15.06-13.33-5.84-4.84-12.32-9.95-18.9-15.43-3.29-2.83-6.39-5.48-9.22-8.4-1.46-1.37-2.65-2.83-3.93-4.29-.37-.46-.73-.91-1.19-1.37,8.76,1.92,16.89,3.1,23.37,3.65,1.83,1.19,3.93,2.56,6.3,3.93,4.75,2.74,10.5,5.84,17.25,8.67,3.38,1.46,6.94,2.83,10.77,4.02,3.83,1.19,7.85,2.28,12.14,2.83,8.4,1.1,16.8.73,24.1-1.46,3.65-1.1,6.94-2.56,9.77-4.47,2.83-1.83,5.11-3.93,7.03-5.93,3.83-4.02,6.39-7.94,6.85-11.23-.18-1.28-.82-2.56-1.46-3.01Zm-352.63,188.87c-.27.09-.64.27-.91.37-1.83-.18-3.93-.46-5.93-.64,3.19-1.55,5.93-3.01,8.31-4.29,2.92.37,5.66.64,8.22.64-3.1,1.19-6.3,2.46-9.68,3.93Zm171.16,25.29c-2.56-.91-5.29-2.1-8.12-3.83-5.57-3.38-11.59-9.31-12.69-17.8-.82-4.47-1.73-9.13-2.56-13.97-.09-.55-.18-1.1-.27-1.64.27,0,.55.09.91.09.09,0,.27,0,.37.09,2.1,4.84,3.19,9.13,3.83,12.14.64,3.1.82,4.84.82,4.84,0,0,.18-1.73.18-4.93-.09-2.83-.46-6.85-1.73-11.59.64.09,1.37.18,2.01.27h-.09c2.01,11.41,3.74,18.44,3.74,18.44,0,0,0-6.76-.82-18.07.46.09.82.09,1.28.18,1.37,11.32,2.65,18.44,2.65,18.44,0,0,.37-6.76.27-17.98.64.09,1.37.18,2.01.37.73,9.68,1.19,17.07,1.19,17.07,0,0,.73-6.3,1.19-16.71.46.09.91.18,1.46.27-.09,5.02.18,9.13.46,11.96.37,3.01.73,4.75.73,4.75,0,0,.09-1.64.27-4.66.18-2.74.55-6.76,1.28-11.59.55.09,1,.18,1.55.27v.55c-.18,4.02-.37,9.49.27,15.61.73,6.12,2.28,11.68,4.75,15.34.55.73,1.1,1.92,1.83,2.83-2.1-.18-4.66,0-6.76-.73Zm13.42-2.56c0,1.46-.46,2.37-1,3.1-2.1.09-5.02-1.19-5.57-3.65-.73-3.65-1.37-8.95-2.1-14.88-.64-5.93-1.64-11.32-2.65-15.24.64.09,1.37.18,2.01.37.09,5.2.73,9.31,1.28,12.23.64,3.19,1.19,4.84,1.19,4.84,0,0-.09-1.73-.18-4.93-.09-2.83,0-6.85.46-11.78,1.1.18,2.28.37,3.38.55.64,6.3,1.28,12.05,1.73,17.07.82,6.12,1.1,8.67,1.46,12.32Zm-53.22-193.34c.46-.09,1-.18,1.46-.27,1.1,6.21,2.19,10.68,2.65,12.41-1.46-.09-2.74-.37-3.38-.82-.27-.09-.46-.27-.73-.37,0-1.83.09-5.66,0-10.95Zm-4.2.64c.27,0,.55-.09.73-.09s.37-.09.55-.09c.91,4.84,1.83,8.4,2.28,10.22-1-.55-1.92-1.1-3.01-1.64v-.09h-.09c-.37-.18-.82-.46-1.28-.64.27-1.28.64-3.93.82-7.67Zm-74.49,64.81c1-1.64,2.1-3.38,3.1-5.11.55,1.73,1,3.38,1.19,3.93-1.64,1.19-3.1,2.28-4.56,3.29.09-.55.18-1.28.27-2.1Zm-1.37,2.1c0,.09,0,.18.09.27,0,.18.09.37.09.55-.46.37-.91.64-1.37,1,.46-.64.82-1.28,1.19-1.83Zm-7.58,10.5c.73-.82,1.37-1.73,2.1-2.74,1.28,1.92,2.46,3.56,3.47,4.93-1.92-.73-3.83-1.46-5.57-2.19Zm9.95,3.83c-.82-.27-1.55-.55-2.37-.82-.91-2.1-2.19-4.75-3.83-7.94.64-.46,1.37-.91,2.1-1.37,2.01,3.93,3.74,7.12,5.02,9.4-.27.18-.55.46-.91.73Zm1.83-1.37c-.82-2.56-2.01-6.02-3.47-10.32h0c.18.46.27.64.27.64v-.82c.37-.18.64-.37,1-.64,1.83,4.11,3.47,7.3,4.56,9.4-.91.64-1.64,1.19-2.37,1.73Zm.18-12.6c.46-.27.91-.55,1.37-.82,1.55,4.11,2.92,7.3,3.93,9.4-.82.64-1.64,1.19-2.37,1.83-.73-2.37-1.64-5.93-2.92-10.41Zm16.8,0c-1.1.82-2.28,1.64-3.47,2.46-.18-1.37-.55-4.84-1.64-9.86l-.27.09c.82-.55,1.64-1,2.46-1.55.46,2.74,1.19,4.93,1.83,6.48.55,1.1.91,1.83,1.1,2.37Zm-.27-10.41c.73-.46,1.46-.91,2.28-1.46,1.1,4.75,2.01,7.67,2.01,7.67,0,0,.37-3.38.27-9.13.82-.55,1.64-1,2.46-1.55,1.37,4.66,2.46,7.67,2.74,8.4-.09,0-.09.09-.18.09-.55.37-1.19.73-1.73,1.19-2.28,1.55-4.75,3.19-7.3,5.02-.09-.55-.18-1.28-.27-2.28-.18-2.01-.37-4.66-.27-7.94Zm-3.38,13.05c-1.37,1-2.74,2.01-4.2,3.1v-2.56c-.09-1.92-.27-4.84-.91-8.22.37-.27.82-.46,1.19-.73,1.83,4.29,3.38,7.3,3.93,8.4Zm-4.38,3.19c-.73.55-1.46,1.1-2.19,1.64-.18.18-.46.37-.64.46-.46-2.37-1.1-5.93-2.19-10.41.64-.37,1.19-.73,1.83-1.19,1,2.74,1.83,5.11,2.37,6.85.37,1.37.64,2.19.82,2.65Zm39.53,18.71c-12.6-1.19-24.19-3.38-34.69-6.02-3.56-.91-6.94-1.83-10.22-2.83,2.01-1.37,4.02-2.74,6.02-4.29,6.48-4.84,12.14-9.77,16.8-13.97.18.18.37.37.46.55v.09h.09c1.28,1.64,2.83,3.29,4.56,5.02,2.56,2.37,5.66,4.84,9.04,6.94,6.94,4.29,13.78,6.85,18.8,8.31.82.27,1.55.46,2.28.64.55,1,1.1,2.19,1.73,3.38h0c.46.91,1,1.92,1.55,2.92-5.57.09-11.05-.27-16.43-.73Zm66.18-11.14c.73,1.28,1.19,2.74,1.64,4.38,1.19,4.29,2.19,8.85,3.1,13.51-2.01-.73-4.11-1.46-6.12-2.1.37-3.29.91-8.67,1.37-15.79Zm-7.3,10.04c.09-4.02.64-9.4,1.73-15.88,1.1.91,2.19,1.83,3.1,2.65.09,8.49.37,14.97.55,18.71-.46-.18-1-.37-1.46-.46-1.28-.37-2.65-.64-3.93-1-.09-1.1-.09-2.46,0-4.02Zm-13.33-33.68c.82,1,1.64,2.01,2.46,3.01-.55,18.07-.46,29.48-.46,29.48,0,0,1.37-9.77,3.01-26.29.64.82,1.37,1.64,2.01,2.46-.55,8.22-.37,14.88-.27,19.53.18,5.11.46,7.94.46,7.94,0,0,.18-2.74.55-7.85.37-4.11.73-9.86,1.64-16.8.73.91,1.46,1.73,2.19,2.65.37.37.73.82,1.1,1.19-.82,7.39-.82,13.6-.46,17.98.09,1.55.27,2.92.46,4.02-5.93-1.37-11.96-1.92-17.71-2.1-5.75-.18-11.32,0-16.71.09-.27-1.64-.55-3.01-.73-4.11-.27-1.73-.46-2.74-.46-2.74,0,0-.27.91-.55,2.65-.18,1.1-.37,2.56-.55,4.2h-1.73c-.46-3.19-.82-5.93-1-7.94-.27-2.65-.46-4.11-.46-4.11,0,0-.27,1.46-.55,4.02-.18,1.55-.37,3.47-.46,5.84-.46-.64-.82-1.28-1.28-1.92-1.1-3.38-1.55-6.3-1.83-8.4-.18-2.19-.27-3.38-.27-3.38,0,0-.37,1.1-.73,3.29-.18,1.1-.46,2.19-.46,3.56-.64-.91-1.1-1.64-1.46-2.19-.55-5.2-1.19-8.31-1.19-8.31,0,0-.64,3.19-1.28,8.58-.18-.09-.37-.18-.55-.37-.64-7.03-1.37-11.32-1.37-11.32,0,0-.82,3.1-1.46,9.58-.55-.27-1-.64-1.55-.91-.27-5.75-.82-9.4-.82-9.4,0,0-.73,2.92-1.55,7.94-.64-.37-1.28-.73-1.83-1.1-.27-2.65-.46-4.93-.55-6.57-.09-2.01-.18-3.19-.18-3.19,0,0-.37,1.1-.82,3.01-.27,1.28-.64,3.1-.91,5.2-.55-.37-1.1-.73-1.64-1-.55-5.66-1.28-9.13-1.28-9.13,0,0-.55,2.83-1.1,7.67-.55-.37-1-.64-1.55-1,0-2.65-.27-4.93-.55-6.48-.37-2.01-.73-3.01-.73-3.01,0,0-.09,1.1-.27,3.01-.09,1.28-.37,3.01-.73,5.02-.64-.46-1.19-.82-1.83-1.28,0-6.3-.37-10.22-.37-10.22,0,0-.82,3.19-1.83,8.76-.46-.37-.91-.73-1.37-1.1-.09-1.46-.09-2.74,0-3.65.09-1.37.18-2.19.18-2.19,0,0-.46.64-1.19,1.92-.37.64-.64,1.46-1,2.46-.27-.27-.55-.46-.82-.73,0-.82.09-1.64.18-2.37.27-.18.55-.46.73-.64,5.29-4.75,8.49-7.67,8.49-7.67,0,0-4.02,1.92-9.95,5.75-.91.55-1.83,1.19-2.74,1.73,0-.82.09-4.47-.27-9.95.82-.55,1.64-1.1,2.56-1.64.27,2.19.73,4.02,1.1,5.29.64,2.1,1.1,3.19,1.1,3.19,0,0-.09-1.19-.09-3.29,0-1.73,0-4.02.27-6.76.73-.46,1.46-1,2.19-1.46.18,2.28.64,4.2,1,5.57.55,1.83,1,2.83,1,2.83,0,0-.09-1.1,0-2.92,0-1.73.18-4.29.73-7.3,1-.73,2.1-1.37,3.1-2.1.37,1.83.91,3.47,1.28,4.93.64,2.01,1.19,3.74,1.64,5.2.91,2.83,1.19,4.56,1.19,4.56,0,0,.09-1.64-.18-4.66-.18-1.46-.37-3.29-.73-5.48-.27-1.92-.55-4.11-.73-6.3.64-.37,1.19-.82,1.83-1.19,1,5.75,2.19,10.32,2.74,13.78.73,3.93.91,6.21.91,6.21,0,0,.27-2.19.09-6.21-.09-3.74-.73-9.04-1.19-15.43.27-.18.46-.37.73-.46,1-.64,1.92-1.37,2.92-2.01.18,3.56.64,6.85,1.1,9.68.55,3.47,1,6.48,1.37,9.04.73,4.93.73,7.76.73,7.76,0,0,.37-2.74.27-7.67-.09-2.46-.18-5.57-.46-9.13-.18-3.47-.46-7.39-.18-11.59.82-.64,1.73-1.19,2.56-1.83l.37-.27,1.19.64c.27.18.46.27.73.37.55,10.59.82,19.35,1,25.47.18,6.48.27,10.13.27,10.13,0,0,.37-3.47.73-9.95.37-5.75.73-13.97.82-24.01,1.37.82,2.74,1.55,4.11,2.37-1.37,11.5-1.64,20.9-1.55,27.48.09,6.76.37,10.5.37,10.5,0,0,.09-3.65.64-10.32.46-6.3,1.37-15.24,3.19-26.2.91.46,1.73,1,2.65,1.46-.18,22.09.09,35.87.09,35.87,0,0,1.19-12.87,2.56-34.41.82.46,1.64.82,2.46,1.28.46,11.23-.09,22-.27,28.39-.18,6.57-.46,10.32-.46,10.32,0,0,.64-3.56,1.46-10.04.73-6.39,1.64-15.7,1.73-27.29.91.46,1.83,1,2.74,1.46-.91,22-1.1,35.69-1.1,35.69,0,0,1.64-12.78,3.74-34.32.91.46,1.83,1,2.83,1.46.37,10.59-.18,19.35-.64,25.47-.55,6.57-1.1,10.13-1.1,10.13,0,0,.91-3.47,2.1-9.86,1-5.57,2.1-13.42,2.46-23.19,1,1.28,2.1,2.65,3.29,4.02-.09,15.24.18,24.83.18,24.83,0,0,1.28-7.39,2.46-21.27Zm141.86,66.09c-2.56.55-5.02.37-7.58-.27-2.46-.64-4.93-1.64-7.39-2.74-1.28-.55-2.46-1.1-3.65-1.64l-1.83-.82c-.55-.27-1.1-.55-1.64-.82-1.1-.46-2.01-1.28-3.01-1.92-.91-.73-1.92-1.46-2.83-2.19-1.83-1.55-3.56-3.1-5.2-4.75-3.29-3.19-6.12-6.39-8.58-9.4-2.37-2.83-4.47-5.48-6.3-7.85-1.37-1.73-2.56-3.38-3.56-4.84-3.47-4.84-5.2-7.85-5.2-7.85,0,0,1,2.28,3.1,6.12.09.18.27.37.37.64-5.39-3.29-11.68-7.3-18.53-11.59-7.03-4.38-13.6-8.4-19.08-11.78-.27-.18-.55-.37-.82-.55-1.64-1-3.19-1.92-4.66-2.83-6.39-3.83-10.32-6.21-10.32-6.21,0,0,3.19,3.38,8.85,8.22.55.46,1.1.91,1.73,1.46-4.56.18-10.22-.46-16.52-2.28-8.76-2.46-18.71-6.85-29.39-12.32-2.92-1.46-5.84-3.01-8.76-4.66-1.64-.91-3.19-1.83-4.84-2.74-6.66-3.74-13.51-7.76-20.63-11.87l-.73-.46q0,.09.09.27-2.92-1.83-14.24,5.93c-5.48,3.74-10.59,7.49-15.61,10.95-9.95,6.94-18.9,13.33-26.29,18.71-.37.27-.64.46-1,.73-.09-.55-.18-2.01-.18-4.2v-1.64c.64-1.19,1.28-2.37,2.01-3.56.09.27.18.64.27.91.73,2.46,1.28,3.83,1.28,3.83,0,0-.09-1.37-.27-3.93-.09-.82-.09-1.83-.18-2.83.09-.09.09-.27.18-.37.55-1.1,1-2.1,1.55-3.1,1.1,4.93,1.83,7.76,1.83,7.76,0,0,.09-4.2-.18-11.23.73-1.46,1.37-3.01,1.92-4.47.27,2.37.64,4.47,1,6.12.55,2.92,1,4.56,1,4.56v-4.56c0-2.74.09-6.76.27-11.68.18-.55.46-1.1.64-1.73.27-.09.46-.18.73-.37,1.55,9.95,2.83,16.07,2.83,16.07,0,0,.18-6.39-.27-17.25.27-.09.46-.18.73-.27s.64-.27,1-.37c1.83,9.68,3.38,15.7,3.38,15.7,0,0,.37-7.12-.18-16.98.46-.18,1-.37,1.46-.55.27,4.47,1.1,8.03,1.83,10.41.73,2.56,1.37,3.93,1.37,3.93,0,0-.18-1.46-.37-4.02-.18-2.37-.27-7.03,0-11.32.73-.27,1.46-.55,2.19-.82,1.19,8.49,2.37,13.78,2.37,13.78,0,0,.37-5.57.37-14.79.91-.37,1.92-.73,2.92-1.1.46,3.29,1.28,5.93,1.92,7.76.73,2.01,1.28,3.1,1.28,3.1,0,0-.09-1.19-.27-3.29-.18-2.01-.27-4.84-.18-8.4,1-.27,2.1-.55,3.19-.82,1.19,5.93,2.19,9.49,2.19,9.49,0,0,.27-3.83.27-10.22.73-.27,1.55-.55,2.37-.82.27,2.83.82,5.11,1.37,6.66.64,1.83,1.19,2.74,1.19,2.74,0,0-.09-1-.18-2.83-.09-1.83-.09-4.47.46-7.58.73-.27,1.46-.64,2.19-.91.46,1.73.73,3.19,1,4.38.37,1.83.55,2.83.55,2.83,0,0,.27-1,.46-2.83.18-1.37.27-3.19.18-5.39,1.64-.82,3.29-1.64,5.02-2.56,0,2.28.37,4.11.73,5.48.64,2.1,1.19,3.19,1.19,3.19,0,0-.18-1.19-.18-3.29,0-1.73.18-4.2.91-6.94.18-.09.37-.18.55-.27.64-.46,1.37-.82,2.01-1.28,1,6.57,1.92,10.59,1.92,10.59,0,0,.37-4.02.46-10.68.55-.09,1.19-.18,1.73-.27.55,3.29.82,6.02,1,8.22.27,3.1.37,4.84.37,4.84,0,0,.37-1.64.64-4.75.18-2.1.37-4.93.27-8.4,1,0,1.92,0,2.74.09.55,3.47.82,6.39,1,8.58.18,3.19.27,5.02.27,5.02,0,0,.37-1.73.73-4.84.18-2.1.46-4.75.37-8.03.46.27,1,.64,1.55.91.27.18.91.46,1.46.73.37,10.77,1.1,17.53,1.1,17.53,0,0,.82-6.3,1.64-16.89.55.09,1,.09,1.55.18.82,6.02,1.19,12.05,1.37,15.52.18,3.65.18,5.75.18,5.75,0,0,.37-1.92.82-5.57.37-3.56.73-8.85.46-15.43.73,0,1.55.09,2.28.09,1,15.88,2.19,25.83,2.19,25.83,0,0,.55-9.68.73-25.83h1.28c.91,0,1.64,0,2.37.09,0,7.76.73,15.24,1.19,19.53.46,4.56.91,7.12.91,7.12,0,0,0-2.46.09-7.03.09-4.29-.09-11.78.46-19.53.55,0,1,.09,1.55.09.91.09,1.73.09,2.65.09v1.37c-.37,8.76-.27,15.97-.09,20.9.18,5.11.37,7.94.37,7.94,0,0,.18-2.74.55-7.85.37-5.11,1-12.41,2.01-21.73l-.18-.55c.91.09,1.83.09,2.74.18.46,8.4.55,15.34.46,20.17-.09,5.2-.18,8.12-.18,8.12,0,0,.55-2.74,1.19-7.94.64-4.75,1.28-11.68,1.37-20.27.64,0,1.37.09,2.01.09.55,0,1.1,0,1.64.09-.64,8.4-.46,15.24-.18,19.99.37,4.84.73,7.49.73,7.49,0,0,0-2.65.27-7.39.27-4.75.73-11.59,2.01-19.9.64,0,1.28.09,1.92.09.91,9.22,1.1,16.8,1.1,22.09s-.18,8.4-.18,8.4c0,0,.55-2.92,1.19-8.22.55-5.2,1.19-12.78.82-22.18.91,0,1.92.09,2.83.09.27,9.58.27,17.34.27,22.82-.09,5.66-.09,8.76-.09,8.76,0,0,.46-3.01,1.1-8.58.64-5.39,1.28-13.24,1.64-22.91,1.1,0,2.1.09,3.19.09-.55,10.13-.46,18.44-.27,24.19.18,5.93.55,9.31.55,9.31,0,0,.18-3.19.46-9.13.37-5.75.91-14.06,2.1-24.28h.64c.91,0,1.83,0,2.74.09-.55,16.52-.46,26.84-.46,26.84,0,0,1.46-9.58,3.19-25.74,1,.82,2.19,1.83,3.47,2.92,0,17.07.37,27.75.37,27.75,0,0,1-8.31,2.28-25.56.91.73,1.92,1.55,3.01,2.37,1,8.22,1.46,17.62,1.28,22.18-.18,4.93-.46,7.67-.46,7.67,0,0,.73-2.56,1.46-7.39.73-4.66,1.37-11.41,1-19.81.73.55,1.46,1.1,2.19,1.73l.55,2.83c.37,8.12.18,14.7-.09,19.35-.27,4.93-.55,7.58-.55,7.58,0,0,.64-2.56,1.46-7.39.73-4.56,1.64-11.32,1.83-19.9,1.19.91,2.46,1.92,3.83,2.83-.82,7.58-1.19,15.43-1.1,19.72.09,4.56.37,7.12.37,7.12,0,0,.18-2.46.64-6.94.46-4.29,1.19-10.41,2.65-17.89,1,.73,2.01,1.46,3.1,2.19-.37,17.71-.09,28.75-.09,28.75,0,0,1.28-10.04,2.74-26.93.46.37.91.64,1.37,1,.82.55,1.64,1.1,2.46,1.73.73,3.56.64,7.03.46,10.13-.27,3.47-.55,6.48-.73,8.95-.09,2.46,0,4.47.09,5.75.18,1.28.27,2.01.27,2.01v-1.92c.09-1.28.18-3.19.64-5.57.37-2.37,1-5.29,1.64-8.85.37-2.46.82-5.29.64-8.4.55.37,1.19.82,1.73,1.19.46,8.03.82,17.34.73,21.82-.09,4.75-.18,7.49-.18,7.49,0,0,.55-2.56,1.1-7.3.64-4.66,1.28-11.41,1.37-19.9,1.1.73,2.19,1.46,3.29,2.1l.18,1.28c.64,6.85.55,12.51.37,16.43-.18,4.11-.46,6.3-.46,6.3,0,0,.64-2.1,1.37-6.12.64-3.74,1.37-9.22,1.37-16.07,1.1.64,2.1,1.28,3.1,1.92-.46,6.76-.37,12.41-.09,16.34.27,4.29.64,6.66.64,6.66,0,0,.09-2.28.37-6.57.27-3.65.73-8.67,1.64-14.88,1.28.73,2.37,1.46,3.56,2.1-.82,8.31-1.19,17.25-1.28,21.91-.18,5.02-.09,7.76-.09,7.76,0,0,.37-2.65,1.1-7.58.73-4.75,1.73-11.68,3.38-20.27.55.27,1.1.64,1.55.91.37,8.22.09,16.16-.37,20.81-.46,4.75-.82,7.39-.82,7.39,0,0,.82-2.46,1.73-7.12.91-4.47,2.01-11.05,2.28-19.35.46.27.82.46,1.28.73.46.37.91.73,1.28,1.1-.91,9.22-1.19,16.71-1.37,21.91-.09,5.29-.09,8.31-.09,8.31,0,0,.37-2.83,1.1-8.03.64-4.84,1.55-11.59,2.92-19.99.82.73,1.64,1.37,2.28,1.92.27,10.04.09,18.26-.18,24.01-.27,5.84-.55,9.04-.55,9.04,0,0,.73-3.1,1.55-8.85.55-3.83,1.19-8.85,1.64-14.97.64,1.28,1.55,3.01,2.65,5.02-.09,3.29-.46,10.86-.64,13.6-.46,4.66-.64,7.12-.64,7.12,0,0,.55-2.37,1.46-6.94.55-2.74,1.1-6.3,1.64-10.68.73,1.37,1.64,2.83,2.56,4.29.18,5.75.09,10.5-.09,13.88-.18,3.74-.37,5.84-.37,5.84,0,0,.64-1.92,1.37-5.57.55-2.56,1.19-5.93,1.55-10.13.73,1.19,1.46,2.28,2.28,3.47.09,3.38-.18,7.39,0,8.95.18,2.1.37,3.19.37,3.19,0,0,.27-1.1.64-3.1.27-1.64.55-3.83.64-6.57.09.18.18.27.27.46,1.19,1.73,2.46,3.38,3.65,4.93-.37,7.03-.37,11.23-.37,11.23,0,0,1.1-.64,2.65-8.22.64.82,1.28,1.55,1.92,2.28-.09,6.21.27,10.13.27,10.13,0,0,.82-2.74,1.92-7.49,2.19,2.56,4.2,4.75,5.66,6.39-1.46,0-2.74.37-4.02.64Zm-25.38-44.46c.09-1.73.18-3.56.27-5.48.91,1.19,1.92,2.37,3.01,3.56l-.55,1.28c-.27.64-.18,1.46-.64,2.92-.82-.91-1.55-1.73-2.1-2.28Zm34.78,31.13c.73,1.19,1.37,2.37,2.01,3.65.27.64.55,1.19.82,1.83.09.27.18.55.27.82.09.37.09.18.09.27h-.09l-1.64,1.37c-1.1.82-2.28,1.64-3.47,2.37-.73.46-1.55.91-2.28,1.28-2.37-4.56-6.85-12.78-12.96-21.45-4.56-6.48-9.22-12.05-12.78-16.07.09-.73.18-1.46.18-2.28,7.39,8.85,12.78,16.71,16.34,22.18,3.65,5.66,5.48,8.85,5.48,8.85,0,0-1.46-3.38-4.56-9.22-2.28-4.29-6.66-12.05-11.68-19.72,2.92,2.46,6.12,4.84,9.77,7.03,1.1.64,2.19,1.19,3.19,1.83.82,1.19,1.64,2.37,2.46,3.65,3.01,4.29,6.02,8.85,8.85,13.6Zm-64.17-117.94c.09.82.18,1.46.27,1.73h-.09c-2.74,21.09-4.02,34.41-4.02,34.41,0,0,2.83-12.32,6.76-33.05.73.73,1.46,1.46,2.28,2.19-1.19,16.25-1.55,26.47-1.55,26.47,0,0,1.73-8.95,4.11-24.1.64.64,1.37,1.19,2.01,1.83.09.82.09,1.64.09,1.64-.18.18-.37-3.83-.37.91h-.18c-.46,16.52-.37,26.93-.37,26.93,0,0,1.55-9.95,3.29-26.66.18.09.27.18.27.18,0,0,.09-.18.09-.64.91.73,1.73,1.46,2.65,2.1-.73,15.79-1.73,28.12-1.73,28.12,0,0,1.64-9.95,3.65-26.56.82.64,1.64,1.28,2.46,1.92-.37,8.49-.27,15.43-.09,20.27.18,4.93.37,7.67.37,7.67,0,0,.18-2.65.64-7.49.37-4.38.91-10.68,1.73-18.35.82.64,1.64,1.28,2.46,1.83,0,17.53.37,30.95.37,30.95,0,0,1.19-10.77,2.46-28.85.91.64,1.73,1.28,2.65,1.92.37.27.73.55,1.19.82.55,8.4.37,15.24.09,20.08-.27,4.84-.64,7.49-.64,7.49,0,0,.73-2.56,1.64-7.21.82-4.29,1.64-10.5,1.83-18.17,1.28.91,2.46,1.83,3.65,2.65,0,8.12-.55,16.89-1,21.45-.46,4.84-.82,7.49-.82,7.49,0,0,.73-2.56,1.73-7.21,1-4.56,2.19-11.23,2.74-19.63,1.55,1.19,3.01,2.28,4.38,3.38l-.91-.46c-.82,18.62-1.19,31.22-1.19,31.22,0,0,1.64-11.05,3.65-29.58.46.37,1,1,1.83,1.83.37,13.33,1,21.63,1,21.63,0,0,.82-7.03,1.64-18.9,1,1,2.01,2.1,3.19,3.38-1,8.85-1.37,18.35-1.55,23.37-.18,5.02-.18,7.85-.18,7.85,0,0,.37-2.74,1.19-7.67.73-4.84,1.83-11.78,3.47-20.45.64.73,1.37,1.46,2.01,2.19,0,1.83-.18,3.56-.91,5.29-1,6.57-1.1,12.14-1,16.07.09,4.47.46,7.03.46,7.03,0,0,.09-2.46.55-6.85.46-4.11,1.28-10.04,3.01-17.16.37.27.73.46,1.1.64q.09,0,.09.09l.37,1.64-.73-3.47h0c.91,3.1,1.73,9.13,2.19,10.86s.64,2.74.64,2.74c0,0,.18-1,.37-2.83.09-1.55.18-3.83-.09-6.57,2.65,3.1,6.76,9.4,6.76,9.4,0,0-1-2.65-2.1-5.39,5.93,6.39,11.87,12.51,15.97,16.61,4.11,4.02,8.03,7.94,11.5,11.68,1.73,1.83,3.47,3.65,4.93,5.48.73.91,1.37,1.73,1.92,2.56q.18.27.27.46c.09.18,0,.27-.09.37,0,.09-.09.09-.27.27l-.55.55c-.37.37-.82.64-1.19,1-.82.64-1.55,1.19-2.37,1.73-1.64,1.1-3.19,1.92-4.75,2.74-6.3,3.1-17.44,1-19.08.37-3.19-1.1-6.94-2.65-11.05-4.56-3.47-1.64-7.12-3.56-10.86-5.66-.64-.37-1.28-.73-1.92-1.1-2.1-1.28-4.02-2.56-5.93-3.74-2.1-1.46-4.2-2.83-6.12-4.29-3.56-2.74-6.66-5.29-9.22-7.58-1.28-1.1-2.37-2.19-3.38-3.1-1-.91-1.83-1.73-2.46-2.46l-2.1-2.1s.55.91,1.55,2.65c.27.46-4.02-2.56-8.03-5.29-6.57-5.39-16.34-13.05-27.66-20.9-13.88-9.68-26.56-17.16-33.59-21.18,8.67.18,13.88.09,13.88.09,0,0-6.85-1.1-18.07-2.46,0,0-1.19-.55-.64-.09-.37-.09-.82-.09-1.19-.18-6.12-.73-13.51-1.64-21.63-2.46-4.11-.37-8.31-.82-12.78-1.19-1.1-.09-2.19-.18-3.38-.27s-2.46-.18-3.56-.18c-2.28,0-4.66,0-6.94-.18-.64,0-1.37-.09-2.1-.18.09-1.73.09-6.3-.09-12.96,1.28-.27,2.65-.46,4.11-.73.46,3.56.73,6.48.82,8.67.18,2.56.27,3.93.27,3.93,0,0,.37-1.37.73-3.83.37-2.19.73-5.39.82-9.31.73-.18,1.46-.27,2.19-.46.18,3.93.73,7.21,1.19,9.49.64,2.74,1.1,4.2,1.1,4.2,0,0-.09-1.55-.09-4.2,0-2.46.09-5.93.46-10.04.91-.18,1.92-.46,2.83-.64.37,8.76.91,14.24.91,14.24,0,0,.91-5.57,1.83-14.97.82-.18,1.55-.46,2.37-.64,0,9.04.37,14.61.37,14.61,0,0,1.1-5.66,2.28-15.34.82-.27,1.55-.46,2.37-.73.64,10.22,1.46,16.52,1.46,16.52,0,0,.73-6.48,1.19-17.34.55-.18,1.1-.37,1.64-.55.37-.09.73-.27,1.19-.37-.27,5.66,0,10.32.27,13.51.37,3.56.73,5.57.73,5.57,0,0,.09-1.92.27-5.48.18-3.47.64-8.49,1.64-14.51,1.19-.37,2.37-.82,3.47-1.19-.18,6.76-.09,12.32.09,16.16.18,4.29.46,6.66.46,6.66,0,0,.18-2.28.55-6.57.37-4.11.91-10.04,1.83-17.34,1.1-.46,2.28-.82,3.38-1.28-.46,7.03-.46,12.78-.27,16.8.18,4.11.37,6.39.37,6.39,0,0,.18-2.19.64-6.3.46-3.83,1.55-11.32,2.65-18.26,1.28-.55,2.46-1,3.65-1.55-.46,6.66-.55,12.05-.55,15.97,0,4.29.18,6.76.18,6.76,0,0,.27-2.28.82-6.57.55-4.11,1.28-10.04,2.56-17.44,1.37-.64,2.74-1.28,4.02-1.92-1.37,16.34-1.73,26.66-1.73,26.66,0,0,2.1-10.5,4.84-28.21,1.19-.64,2.28-1.28,3.38-1.92-1.1,10.77-1.28,19.63-1.28,25.83,0,6.57.18,10.13.18,10.13,0,0,.27-3.56.82-9.95.55-6.48,1.55-15.79,3.38-27.39h-.27c1.19,0,2.56.09,4.02.09-.46,13.15-1.46,23.92-2.37,31.4-.91,7.76-1.37,10.86-1.37,10.86,0,0,.82-2.83,2.37-10.5,1.37-7.3,3.1-17.89,4.2-31.13,1.1.37,2.19.82,3.38,1.19-1.83,23.28-2.56,37.79-2.56,37.79,0,0,2.28-13.78,5.29-36.88,1.19.37,2.37.73,3.56,1.19l.09.09c-.91,11.23-1.28,20.45-1.46,26.84-.18,6.39-.09,9.95-.09,9.95,0,0,.37-3.47,1.1-9.68.73-6.02,1.73-14.79,3.19-25.56,1.28.64,2.74,1,4.2,1.37-.55,12.78-1.46,23.19-2.19,30.49-.73,7.58-1.28,11.78-1.28,11.78,0,0,.91-4.02,2.28-11.41,1.28-7.03,2.83-17.25,4.02-30.03.91.37,1.73.73,2.46,1.37.64.46,1.19,1.1,1.73,1.73-2.1,16.61-3.1,26.93-3.1,26.93,0,0,2.1-8.85,5.2-24.19.82.46,1.64,1.46,2.37,2.37Z"/>
    <path class="cls-1" d="m666.68,266.37s.91,0,2.56.27v-1c-1.73.37-2.56.73-2.56.73Z"/>
    <path class="cls-1" d="m840.58,115.93c-5.93-3.01-11.32-5.84-15.24-8.03-2.46-1.37-4.38-2.46-5.39-3.01-.27-.27-.46-.64-.55-1.1-.18-1.19.73-3.47,2.65-3.38,2.01-.18,4.47,1.28,7.58,2.83,3.1,1.55,6.48,3.1,10.13,4.66,14.51,6.12,27.29,8.76,27.29,8.76,0,0-10.86-7.21-25.38-13.24-1.73-.73-3.47-1.37-5.11-2.01-.09-.09-.18-.18-.27-.18-5.48-3.74-13.69-9.13-24.74-13.88-5.48-2.46-11.78-4.56-18.53-6.57-6.76-2.1-13.97-4.11-21.18-6.85-1.83-.73-3.65-1.46-5.48-2.19-1.83-.82-3.65-1.64-5.48-2.56s-3.65-1.92-5.48-2.83c-1-.46-1.92-1-2.92-1.55-1-.46-2.01-.91-3.1-1.37-4.11-1.73-8.49-2.92-12.78-4.02s-8.67-2.28-13.05-3.38c-2.19-.64-4.29-1.19-6.48-1.83-1-.27-2.28-.64-3.47-.91-1.19-.18-2.37-.46-3.56-.46-4.75-.46-9.31.09-13.69.91s-8.49,2.01-12.41,3.01c-4.02,1.1-7.85,2.01-11.68,2.92-15.43,3.74-29.03,7.67-40.53,10.95-4.38,1.19-8.4,2.37-12.14,3.38-1.37.09-3.01.18-4.84.37-5.11-2.01-11.14-4.29-18.07-6.94-5.48-2.1-11.5-4.38-18.07-6.66-1.64-.55-3.38-1.1-4.93-1.73-1.64-.64-3.29-1.37-5.02-2.01-3.47-1.37-7.03-2.92-11.41-3.29-2.19-.27-4.56.09-6.57.73s-4.02,1.37-5.93,2.28c-3.83,1.73-7.49,3.74-11.14,5.48-7.67,3.47-15.61,7.3-23.64,11.32-26.75,13.6-50.66,27.11-69.92,37.79-9.95,1.64-19.63,3.29-29.12,4.84-11.41,2.01-22.36,4.56-32.59,7.58s-19.81,6.3-28.57,9.86c-8.76,3.47-16.8,7.21-24.01,10.77-14.33,7.3-25.38,14.24-32.86,19.17-.55.37-1,.73-1.55,1.1-4.66,1.64-9.95,3.74-15.61,6.48-10.95,5.29-23.73,12.23-36.7,22.09-3.19,2.46-6.48,5.2-9.4,8.31-3.01,3.1-5.84,6.39-8.49,9.86-2.74,3.47-5.29,7.03-7.94,10.77-2.65,3.65-5.2,7.49-7.67,11.5-9.77,15.7-15.61,32.68-21.91,47.1-3.29,7.12-7.39,13.33-11.59,19.08-3.38,4.47-6.66,8.58-9.95,12.41-1.64,1.73-3.38,3.47-5.2,5.39-7.03,7.21-15.52,15.79-24.83,25.29-4.66,4.75-9.49,9.86-14.42,15.24-2.1,2.28-4.2,4.56-6.3,7.03.09.18.18.37.18.55.82,1.28,18.99-15.06,23.46-19.99,7.67-8.49,14.61-16.25,20.63-23.09,1.83-1.83,3.74-3.83,5.75-5.84,4.2-4.38,8.67-9.31,13.24-14.88,4.47-5.57,9.04-11.96,12.6-19.26,6.85-14.7,12.87-31.13,22.46-46.65,4.75-7.76,10.04-15.06,15.15-22,2.56-3.47,5.2-6.66,8.03-9.68,2.74-3.01,5.75-5.66,8.76-8.12,12.32-9.95,24.65-17.34,35.24-23.09,2.83-1.46,5.48-2.83,8.03-4.11-.18.09,3.93-1.83,4.11-1.83,11.78-4.56,31.95-7.58,31.95-7.58,0,0-8.67.46-10.41.55-.46,0-.91,0-1.46.09s-1.19.18-1.83.27c-1.28.18-2.83.37-4.47.73-2.46.55-.91,0-4.11,1,7.67-4.56,14.15-9.4,28.12-15.79,7.3-3.29,15.34-6.66,24.1-9.86,8.76-3.19,18.35-6.3,28.48-8.95,10.13-2.74,21-5.11,32.22-6.94,5.2-.82,10.5-1.64,15.79-2.56,2.65-.46,5.29-.82,7.94-1.28,3.83-.64,7.58-1.19,11.41-1.83,3.01-.46,6.02-1,8.95-1.46,3.01-.55,5.93-1.19,8.85-1.73,5.93-1,11.59-2.74,17.25-4.11,11.14-3.19,21.82-6.66,31.68-10.59,19.81-7.58,37.15-15.61,52.67-19.08,3.83-1,7.58-1.46,11.14-2.01.64-.09,1.28-.18,1.92-.18.37.18.73.27,1.19.55,2.19.91,5.02,2.56,8.58,3.83,3.56,1.28,7.39,1.46,9.95.82.27-.09.55-.18.55-.18.73-.18,1.28-.46,1.64-.64,2.83-.18,5.93-.64,9.4-1.46,4.66-1.1,8.67-2.56,11.14-3.56,3.19-.73,6.57-1.46,10.22-2.28,11.68-2.65,25.47-5.93,40.9-9.31,3.83-.82,7.85-1.64,11.87-2.65,4.02-1,8.03-2.01,12.14-2.74s8.31-1.1,12.41-.73c2.1.18,4.02.64,6.12,1.28,2.19.64,4.38,1.28,6.57,1.92,8.85,2.46,17.71,4.11,25.38,7.12,1,.37,1.92.82,2.83,1.19l2.74,1.37c1.92.91,3.83,1.92,5.75,2.83,1.92.82,3.83,1.73,5.75,2.46s3.83,1.46,5.66,2.1c7.58,2.65,14.88,4.47,21.73,6.21,6.76,1.73,12.96,3.56,18.53,5.66,9.22,3.47,16.61,7.3,22.09,10.5-.46-.18-.91-.37-1.37-.46-1.64-.55-3.1-1.1-4.84-1.46-1.64-.37-3.38-.46-4.93.09-.37.09-.73.27-1.1.46s-.73.46-.91.73c-.55.55-.82,1.19-1,1.83-.37,1.19-.18,2.19.18,3.01.18.46.46.73.73.91.18.27.46.55.73,1,.82,1,2.01,2.37,3.65,3.93,3.29,3.19,8.22,7.21,14.42,10.41,6.3,3.1,12.41,4.75,16.98,5.48,2.28.37,4.11.55,5.39.64,1.28.09,2.01.09,2.01.09,0,0-2.56-1.19-6.66-3.01-3.56-2.28-9.04-4.93-14.97-7.94Zm-241.54-36.88c-2.28-.37-5.2-1.37-8.49-2.46-1.37-.46-2.65-.91-4.02-1.19.37,0,.73,0,1.1-.09h.18c3.1.09,6.12.27,8.76.46,2.74.27,5.11.82,7.3,1.1.09,0,.18,0,.27.09-2.01.64-3.83,1.46-5.11,2.1Zm11.05-4.02c-.73.18-1.46.37-2.1.55-2.01-.73-4.2-1.46-4.38-1.46-20.36-6.12-33.05-9.49-33.05-9.49,0,0,9.95,3.83,27.02,10.04-.27-.09-.55-.09-.91-.18-2.74-.27-5.66-.64-8.85-.82h-1.83c-9.22-2.37-16.71-4.47-22-6.02-5.66-1.64-8.85-2.56-8.85-2.56,0,0,2.92,1.28,8.4,3.47,3.65,1.46,8.49,3.29,14.33,5.29h-.27c-1.83.18-3.65.37-5.57.64-1.19.09-2.28.27-3.47.55l.09-.27c-9.31-2.92-15.34-4.29-15.34-4.29,0,0,3.93,2.19,10.86,5.39-2.83.55-5.75,1.28-8.67,2.1-6.85-2.1-11.23-2.92-11.23-2.92,0,0,2.65,1.64,7.3,4.11-2.37.73-4.75,1.46-7.21,2.28-5.11-1.1-8.4-1.37-8.4-1.37,0,0,1.64,1.1,4.75,2.65-1.92.64-3.83,1.37-5.84,2.1-5.2-1.1-8.67-1.37-8.67-1.37,0,0,1.83,1.1,5.02,2.74-3.01,1.1-6.02,2.19-9.04,3.38-1.37-.18-2.65-.46-3.56-.73-1.83-.46-2.92-.82-2.92-.82,0,0,.82.73,2.46,1.73.37.27.91.55,1.37.82-1.64.64-3.29,1.19-5.02,1.83-2.92-.64-4.75-.91-4.75-.91,0,0,.91.64,2.56,1.73-9.86,3.65-20.27,6.85-31.22,9.86-5.57,1.28-11.14,2.83-16.98,3.83-2.92.55-5.84,1.1-8.76,1.73-1.64.27-3.38.55-5.02.82,17.98-9.13,39.16-20.17,61.98-31.77,7.94-4.02,15.79-7.85,23.37-11.5,3.93-1.92,7.49-4.02,11.05-5.66s7.12-3.19,10.32-2.92c3.47.27,6.94,1.46,10.41,2.74,1.73.64,3.38,1.28,5.11,1.83,1.73.64,3.47,1.1,5.11,1.55,6.57,2.01,12.69,4.02,18.26,5.84,5.93,1.92,11.32,3.65,15.97,5.11-.64.18-1.19.27-1.83.37Z"/>
    <path class="cls-1" d="m629.44,163.31l.09.09c0-.09-.09-.09-.09-.09h0Z"/>
    <path class="cls-1" d="m815.84,200.92c-.09,1.37,0,2.83.46,4.38.37,1.55,1.19,3.19,2.19,4.66,2.1,2.92,5.11,5.39,8.22,7.49,3.1,2.1,6.76,4.66,9.22,6.57,2.46,1.92,3.83,3.01,6.02,4.29,2.19,1.37,4.11,2.1,5.39,2.46.64.18,1.19.27,1.55.37.37.09.55.09.55.09,0,0-.18-.09-.46-.27s-.73-.46-1.28-.91c-1.1-.82-6.85-4.11-8.49-5.84-1.55-1.64-18.99-13.24-20.81-22.18,1,.46,1.83.82,2.37,1,12.14,10.04,19.99,15.97,19.99,15.97,0,0-7.03-7.49-19.35-19.26l-2.92-2.01.37.46s-.18-.18-.37-.46l-.27-.18v-.18c.09.09.18.27.27.37h0l-.27-.37c.09-.73.18-1.37.46-1.92.27-.64.55-1.1.73-1.37s.27-.46.27-.46c0,0-.18.09-.46.27s-.73.55-1.19,1.1c-.27.27-.46.55-.73.91l-.18-.18.09.37c-.64,1.28-1.28,2.83-1.37,4.84Z"/>
    <path class="cls-1" d="m568.82,228.67c7.58,2.65,14.97,4.38,21.82,5.48,3.47.46,6.66.91,9.77,1.1,1.55.09,3.01.27,4.38.27h4.11c2.56.09,4.93-.09,7.03-.18,2.1-.09,3.83-.27,5.29-.46,2.83-.37,4.47-.55,4.47-.55,0,0-1.64,0-4.47.09-1.46.09-3.19.09-5.29,0-2.01-.09-4.38-.09-6.94-.37-1.28-.09-2.65-.18-4.02-.27s-2.83-.37-4.38-.55c-3.01-.27-6.21-.91-9.49-1.55-6.66-1.37-13.88-3.29-21.18-5.84-7.3-2.65-14.15-5.75-20.08-8.85-2.92-1.64-5.84-3.19-8.31-4.84-1.28-.82-2.56-1.55-3.74-2.28-1.19-.82-2.28-1.55-3.29-2.28-2.19-1.37-3.93-2.92-5.57-4.11-1.64-1.19-3.01-2.37-4.11-3.29-2.19-1.83-3.47-2.92-3.47-2.92,0,0,1.1,1.19,3.1,3.19,1,1.1,2.28,2.28,3.83,3.65s3.19,3.01,5.29,4.56c1,.82,2.1,1.64,3.19,2.56s2.37,1.73,3.56,2.56c2.46,1.83,5.29,3.47,8.22,5.29,5.93,3.56,12.78,6.94,20.27,9.58Z"/>
    <path class="cls-1" d="m518.98,207.4s.91.82,2.46,2.19c1.55,1.46,3.93,3.38,6.94,5.66,3.01,2.28,6.76,4.84,11.14,7.39,4.38,2.56,9.31,5.02,14.7,7.21s10.77,3.74,15.61,5.02c4.93,1.19,9.4,1.92,13.14,2.37s6.85.64,8.95.73,3.29.09,3.29.09c0,0-1.19-.18-3.29-.55-2.1-.37-5.11-.91-8.76-1.73s-8.03-1.92-12.78-3.29c-4.75-1.46-9.86-3.19-15.15-5.29-5.29-2.19-10.22-4.47-14.61-6.66-4.38-2.28-8.31-4.47-11.5-6.39s-5.75-3.65-7.49-4.84c-1.64-1.28-2.65-1.92-2.65-1.92Z"/>
    <path class="cls-1" d="m563.99,239.26c3.65,1.1,7.12,1.64,9.68,1.73,2.56.18,4.11.09,4.11.09,0,0-1.46-.64-3.74-1.55-2.37-.91-5.57-2.1-9.13-3.19s-6.85-1.92-9.31-2.56c-2.46-.55-4.02-.91-4.02-.91,0,0,1.28,1,3.38,2.28,2.28,1.37,5.39,2.92,9.04,4.11Z"/>
    <path class="cls-1" d="m556.87,242.54c1.19.82,3.01,1.83,5.11,2.37,2.1.55,4.2.46,5.57.27,1.46-.18,2.37-.55,2.37-.55,0,0-.82-.46-2.19-1-1.28-.55-3.1-1.19-5.11-1.64s-3.83-.73-5.29-.82c-1.37-.09-2.37-.09-2.37-.09,0,0,.73.55,1.92,1.46Z"/>
    <path class="cls-1" d="m544.63,288.18c-3.74,1.46-6.66,2.65-8.76,3.19-2.1.64-3.29.82-3.29.82,0,0,1.19,0,3.47-.37,2.19-.37,5.39-1.19,9.13-2.28,7.58-2.1,18.26-4.47,30.12-5.75,11.87-1.37,22.82-1.37,30.67-1,3.93.18,7.12.46,9.31.64s3.47.37,3.47.37c0,0-1.19-.27-3.38-.82-2.19-.46-5.29-1.1-9.31-1.73-7.85-1.19-18.99-1.83-31.13-.46-12.23,1.37-22.91,4.56-30.31,7.39Z"/>
    <path class="cls-1" d="m265.03,402.66c-3.74,10.86-6.76,21.45-9.4,31.04-2.65,9.58-5.2,18.17-7.76,25.19-2.56,7.03-4.93,12.6-6.85,16.43-.91,1.92-1.64,3.38-2.19,4.29-.55,1-.82,1.46-.82,1.46,0,0,.27-.46.91-1.46.64-.91,1.46-2.28,2.56-4.2,2.1-3.65,4.93-9.13,7.76-16.07,2.92-7.03,5.84-15.52,8.76-25.01,2.92-9.49,6.12-19.99,9.86-30.76,7.39-21.73,15.06-40.99,21-54.86,2.92-6.94,5.48-12.51,7.21-16.34s2.74-5.93,2.74-5.93c0,0-1.1,2.01-3.1,5.75s-4.84,9.13-8.12,15.88c-6.76,13.69-15.15,32.77-22.55,54.59Z"/>
    <path class="cls-1" d="m477.17,210.87c-1.55,1.1-2.65,2.1-3.38,2.83-.73.73-1.1,1.19-1.1,1.19,0,0,.55-.27,1.37-.82.91-.55,2.19-1.19,3.83-1.92,3.29-1.55,7.94-3.29,13.24-4.38,5.29-1.1,10.22-1.46,13.88-1.37,1.83,0,3.29.09,4.29.18,1,.09,1.64.09,1.64.09,0,0-.55-.18-1.46-.55-1-.37-2.46-.82-4.29-1.28-3.65-.82-9.04-1.28-14.7-.09-5.66,1.37-10.32,3.93-13.33,6.12Z"/>
    <path class="cls-1" d="m491.32,198.73c-1.64.73-2.56,1.46-2.56,1.46h2.92c1.73,0,4.11-.09,6.57-.18,2.56-.09,4.84-.27,6.57-.46,1.73-.09,2.83-.27,2.83-.27,0,0-.91-.64-2.65-1.28s-4.2-1.19-6.94-1.1c-2.65.27-5.11,1.1-6.76,1.83Z"/>
    <path class="cls-1" d="m504.47,189.51c-3.01.37-5.2,2.19-5.2,2.19,0,0,2.65,1.19,5.66.73,3.01-.37,5.2-2.19,5.2-2.19,0,0-2.74-1.1-5.66-.73Z"/>
    <path class="cls-1" d="m258.46,311.55c-2.83,3.74-6.3,8.12-10.5,12.78-4.11,4.66-8.76,9.77-13.51,15.24-4.75,5.57-9.04,11.05-12.41,16.43-3.47,5.29-5.84,10.59-7.67,15.06-1.64,4.47-2.56,8.31-3.01,10.95s-.64,4.11-.64,4.11c0,0,.37-1.46,1.19-3.93.82-2.56,2.1-6.12,4.2-10.32,2.19-4.2,4.84-9.04,8.58-14.06,3.65-5.02,7.94-10.32,12.69-15.79,4.66-5.48,9.22-10.68,13.14-15.7,3.93-4.93,7.12-9.68,9.58-13.78s4.11-7.67,5.11-10.13c1-2.46,1.55-3.83,1.55-3.83,0,0-.73,1.28-2.01,3.56-1.37,2.37-3.47,5.57-6.3,9.4Z"/>
    <path class="cls-1" d="m221.39,439.08c-2.28,16.16-5.93,37.7-13.14,60.7-.09,4.93-.46,9.86-1.1,14.79.27-.73.55-1.37.82-2.01,9.86-27.75,13.51-54.22,15.24-73.21.82-9.49,1.28-17.25,1.46-22.64.18-5.39.27-8.31.27-8.31,0,0-.27,2.92-.82,8.22-.55,5.29-1.37,12.96-2.74,22.46Z"/>
    <path class="cls-1" d="m540.89,172.34c2.83-2.28,4.66-3.74,4.66-3.74,0,0-2.19.64-5.66,2.19-3.38,1.55-7.94,4.02-12.32,7.76-4.38,3.65-7.67,7.76-9.68,10.86-2.1,3.1-3.1,5.2-3.1,5.2,0,0,1.73-1.55,4.47-3.93,2.74-2.46,6.48-5.66,10.68-9.22,4.2-3.65,8.03-6.85,10.95-9.13Z"/>
  </g>
</svg>