<?xml version="1.0" encoding="UTF-8"?>
<svg id="Hands" xmlns="http://www.w3.org/2000/svg" viewBox="0 0 1339.99 950.83">
  <defs>
    <style>
      .cls-1, .cls-2 {
        stroke-width: 0px;
      }

      .cls-2 {
        fill: #fff;
      }
    </style>
  </defs>
  <rect class="cls-2" x="685.1" y="106.03" width="550" height="450"/>
  <g>
    <path class="cls-1" d="m973.49,469.3c-1.1,1.6-1.8,3-2.1,4-.3,1-.4,1.6-.4,1.6,0,0,.4-.4,1.2-1,.8-.6,1.9-1.5,3.4-2.3,2.9-1.7,6.1-5.1,10.8-6,4.8-1,7.3-1.9,12.1-1.6,3.5.2,7.6.2,7.6.2,0,0-2.1-.9-5.6-1.9-3.5-.9-8.6-1.9-14.4-.7-5.9,1.1-10.4,4.5-12.6,7.7Z"/>
    <path class="cls-1" d="m891.39,534.1q.1.1,0,0c.1-.2,0-.1,0,0Z"/>
    <path class="cls-1" d="m1024.49,504.2q0,.1,0,0c.2.4.2.2,0,0Z"/>
    <path class="cls-1" d="m619.59,470.2h0c.2-.1.3-.3.5-.4-.2.2-.4.3-.5.4Z"/>
    <path class="cls-1" d="m1292.89,219.6c-6,2.6-12,5.1-18,7-6,1.9-12.2,3.5-18.2,5.1-12,3.1-23.7,5.9-34.9,8.4-5.5,1.2-11.2,2.4-16.4,3.9-5.3,1.6-10.4,3.2-15.1,5.2-9.6,3.8-18.1,8.5-25.4,13.2-7.4,4.7-13.7,9.4-19.1,13.7-1.7,1.4-3.3,2.7-4.9,3.9v-.6c-.1-1.2-.3-2.4-.5-3.6l.4.3c7.9-9.8,17.9-17.4,28.3-23.3,10.5-5.9,21.4-10.3,32.3-13.8,21.8-6.9,43.1-11,62.4-17.1,10.7-3.4,20.8-7.4,30.3-11.6-1.3-.1-22.3,7-32.4,10-19.2,5.8-40.3,9.6-62.1,16.5-10.9,3.5-21.9,7.8-32.4,13.8-10,5.6-19.5,12.8-27.4,22-.5-1.7-1-3.3-1.6-4.7-1.4-2.9-2.8-5-3.8-6.3-1.1-1.3-1.7-1.9-1.7-1.9,0,0,.5.7,1.5,2.1.9,1.4,2.1,3.6,3.2,6.5.6,1.6,1,3.6,1.3,5.7q-.1.1-.2.2l.2.2c.2,1.6.4,3.3.4,5.1v2.1c0,.6,0,1.2-.1,1.8-.1.8-.1,1.5-.2,2.3l-1.1,2.3c0,.1.1.6-.3,1.4-.4,1.1-.8,2.2-1.3,3.2-.9,2.1-1.9,3.9-3,5.6-2.1,3.3-4.6,5.7-6.9,7.3s-4.3,2.4-5.7,2.8c-1.4.4-2.2.5-2.2.5,0,0,.8,0,2.3-.2s3.7-.8,6.3-2.2c2.6-1.4,5.4-3.7,8-7,.5-.7,1-1.4,1.5-2.2-.7,2.6-1.6,5.3-2.6,8.1l-.1-.1c-2.8,3.8-5.4,7.1-8.2,9.5-2.7,2.4-5.5,3.9-7.9,4.7s-4.5.8-5.8.7c-1.4-.1-2.1-.3-2.1-.3,0,0,.7.3,2.1.6s3.5.5,6.2,0,5.9-1.8,9-4.1c1.2-.9,2.5-2,3.7-3.2-1.1,2.3-2.2,4.7-3.4,7.1-6,4.6-11.9,6.8-16.1,8-2.3.6-4.1,1-5.4,1.2-1.2.2-1.9.3-1.9.3h2c1.3,0,3.2-.1,5.6-.5,3.5-.5,8.2-1.7,13.3-4.2-.9,1.9-1.9,3.8-2.8,5.7,0,.1-.1.2-.1.2-5.7,5.2-11.6,7.8-15.8,9.1-2.2.7-4,1.1-5.2,1.3s-1.9.3-1.9.3h1.9c1.3,0,3.1-.2,5.5-.6,3.4-.6,8.1-2,13-4.8-.7,1.7-1.5,3.4-2.1,5.2-.1.1-.1.3-.2.5v-.1c-5.3,3.3-10.1,5.2-13.4,6.4-3.3,1.1-5.2,1.6-5.2,1.6,0,0,2,0,5.6-.6,3-.5,7.1-1.4,11.8-3.4-.8,2.4-1.5,4.8-2.2,7.3-.1.4-.2.8-.4,1.2-5.4,2.9-10,4.7-13.4,5.3-1.9.3-3.5.4-4.5.3s-1.6-.1-1.6-.1c0,0,.5.2,1.6.4,1.1.2,2.6.5,4.7.4,3.2,0,7.4-1,12.2-2.8-.5,1.5-.9,3-1.5,4.5-6.5,2.7-14.5,5.9-18,6.7-4,1-6.2,1.4-6.2,1.4,0,0,2.3.1,6.5-.3,3.9-.4,9.5-1.2,16.1-3.2-1.2,3-2.6,6-4.4,8.8-.1.2-.2.3-.4.5-2.6.9-4.8,2-6.8,2.8-3,1.1-5.8,1.7-8,1.9-2.3.3-4.1.3-5.3.2-1.2,0-1.8-.1-1.8-.1,0,0,.6.2,1.8.4,1.2.2,3,.5,5.4.6,2.4,0,5.3-.2,8.6-1.1,1.1-.3,2.3-.7,3.5-1-1.9,2.5-3.9,5-5.9,7.5-4.4,2.5-8.7,3.6-11.8,4.1-2.1.3-3.8.4-4.9.4h-1.7s.6.1,1.8.3c1.2.2,2.9.4,5.1.4s5.2-.3,8.5-1.2c-1.1,1.4-2.2,2.8-3.3,4.3-.6.8-1.1,1.6-1.7,2.4-4.7,1.6-8.8,2.6-11.9,3.1-2.3.4-4.1.6-5.4.8-1.2.1-1.9.2-1.9.2,0,0,.7,0,1.9.1,1.3,0,3.1.1,5.6,0,2.8-.1,5.7-.1,9.3-.7-1,1.4-1.9,2.8-2.8,4.2-.2.2-.3.5-.5.7-7.9,1.8-14.5,1.9-19.1,1.7-2.4-.1-4.2-.3-5.5-.5-1.2-.2-1.9-.3-1.9-.3,0,0,.7.2,1.9.6,1.2.3,3.1.8,5.5,1.3,4,.7,9.8,1.3,16.7.6-1.3,1.7-2.5,3.3-3.9,4.9-.3.3-.6.7-.9,1-5.4,1.1-10.1,1.3-13.4,1.3-4,0-6.3-.3-6.3-.3,0,0,2.2.7,6.3,1.4,2.7.4,6.4.8,10.7.6-1.4,1.4-2.8,2.7-4.3,4-4.3.7-7.9,1-10.5,1.1-3.3.1-5.1.1-5.1.1,0,0,1.8.5,5.2,1,1.9.3,4.3.5,7.1.6-1.4,1-2.7,1.9-4.1,2.8-.7.5-1.5.9-2.2,1.3-17.9,1.3-32.3-2-41.7-5-4.8-1.6-8.4-3.1-10.8-4.1-2.4-1.1-3.6-1.7-3.6-1.7,0,0,1.2.7,3.6,2s5.9,3.1,10.7,4.9c8.2,3.2,20.2,6.7,35.2,7.1-.2.1-.4.2-.6.3l-.4.2v.4l.1.5c-3.6.7-7,1.1-10,1.2h-.3c-2.7,0-6.5-.3-11.1-1.3s-9.9-2.8-15.6-5.3-11.8-5.6-18.3-8.9-13-6.3-19.1-8.5c-1.8-.6-3.6-1.2-5.4-1.7.6,0,1.2.1,1.9.2,1.5.3,2.9.5,4.3.8,2.8.5,5.4,1,7.9,1.4,4.9.9,9.2,1.6,12.6,2.2,6.9,1.1,10.7,1.7,10.7,1.7,0,0-3.8-1-10.6-2.8-3.4-.9-7.6-2-12.4-3.2-1.5-.4-3.1-.8-4.7-1.2,5.3.5,11.3.8,17.7.5,23.9,1.9,38.1,2.6,38.1,2.6,0,0-8.4-1.4-22.8-3.5.7-.3,1.3-.6,2-.9,1.7-.3,3.4-.7,5.1-1.1,6.3-.3,11.6-.9,15.6-1.5,6.3-1,9.7-1.9,9.7-1.9,0,0-3.6.4-10,.8-2.3.1-4.9.2-7.9.3,2.4-.9,4.7-1.8,6.8-2.9,1.7-.8,3.2-1.7,4.7-2.5,2-.4,3.7-.6,5.2-.9,3.9-.5,6-.8,6-.8,0,0-2.2-.2-6.1-.3h-1.9c3.1-2,5.8-4,8.1-6,4.1-3.5,7-6.8,8.9-9.1,1-1.1,1.6-2.1,2.1-2.7s.7-1,.7-1c0,0-.3.3-.9.8s-1.4,1.3-2.6,2.2c-2.3,1.9-5.6,4.5-10,7.3-3.8,2.4-8.4,4.9-13.7,7.2,7.1-5.2,12.7-10.4,16.9-14.7,4-4.1,6.8-7.6,8.7-9.9,1.8-2.4,2.8-3.6,2.8-3.6,0,0-1.1,1.2-3.1,3.5-2.1,2.3-5.1,5.5-9.4,9.4-6,5.5-14.5,12.4-25.6,18.8-4.4,1.3-9.1,2.4-14,3.1h-.3c5.6-2.4,10.8-4.9,15.5-7.6,9.1-5.1,16.1-10.8,21.2-15.9,5.1-5.2,8.4-9.8,10.3-13,1-1.6,1.7-2.9,2.1-3.7.4-.9.7-1.3.7-1.3,0,0-.3.4-.8,1.3s-1.3,2.1-2.4,3.7c-2.2,3.1-5.7,7.6-11,12.5s-12.5,10.1-21.6,14.8c-7.5,3.9-16.2,7.4-25.9,10.7-2.8.3-5.5.5-8.1.6,5.7-1.1,11-2.7,16-4.7,8.2-3.4,15.4-7.6,21.7-12.2,12.5-9.2,21.2-19.4,27.9-27.8,6.6-8.5,11.1-15.5,14.2-20.2,3-4.7,4.6-7.2,4.6-7.2,0,0-1.7,2.5-4.9,7.2-3.3,4.7-8.1,11.6-15,19.9-6.9,8.2-15.9,18-28.4,26.7-6.2,4.3-13.3,8.2-21.3,11.3-6.6,2.5-13.9,4.3-21.5,4.9,3.4-1.6,6.9-2.9,10.4-4.2,2.7-1,5.4-2,8-3,2.6-1.1,5.1-2.3,7.7-3.4,9.9-4.9,18.4-11,25.6-17.4s13-13.2,17.9-19.8c4.8-6.6,8.6-13.1,11.7-19,6.1-12,9.2-21.9,10.9-28.7,1-3.3,1.4-6,1.8-7.7s.6-2.6.6-2.6c0,0-.2.9-.7,2.7s-1,4.4-2.1,7.8c-2,6.8-5.3,16.8-11.8,28.6-3.2,5.9-7.2,12.2-12.1,18.6-5,6.4-11,12.9-18.2,19s-15.6,11.8-25.2,16.3c-1.7.7-3.5,1.5-5.3,2.3,1.6-.9,3.3-1.8,5-2.9,7-4.2,15.2-9.6,23.5-16.7,4.2-3.5,8.3-7.5,12.4-11.8,4-4.4,7.9-9.3,11.4-14.7,3.5-5.5,6-11,8.3-16.5s4.1-11,5.4-16.3c2.7-10.6,3.8-20.4,4-28.6.2-8.2-.4-14.8-1.1-19.4-.3-2.3-.6-4-.8-5.2-.2-1.2-.3-1.8-.3-1.8,0,0,0,.6.1,1.8,0,1.2.2,3,.2,5.2.1,4.5-.1,11.1-1,19.1s-2.7,17.4-5.9,27.5c-1.5,5-3.5,10.2-5.8,15.4s-5,10.6-8.1,15.6c-3.2,5.1-6.8,9.7-10.5,14.1-3.8,4.3-7.6,8.3-11.5,11.9-7.7,7.3-15.2,13.2-21.8,18-5.4,3.9-10,6.9-13.7,9.2-4.4,1.5-8.9,3.2-13.4,5.5-3.4,1.1-7,2.3-10.9,3.6h-.1c-1.5.5-3,1.1-4.6,1.7-1.2.5-2.4.9-3.5,1.4-1.5.7-3.1,1.4-4.7,2.2-2.6,1.3-5.2,2.8-7.7,4.6-6.9,4.8-12.7,11.8-17.7,19.5-5,7.8-9.5,16-14.3,24.6s-9.6,17.6-14.1,27.1c-.4.9-.8,1.7-1.2,2.6-.4.9-.8,1.9-1.3,2.8-1.3,3-2.6,6-3.8,8.9-1.9,4.7-3.8,9.2-5.9,13.4-3.5,6.8-8.3,12.6-13.5,17.7-1.2,1.1-2.4,2.3-3.6,3.3-.9.8-1.8,1.5-2.7,2.3-5.8,4.8-11.8,8.8-17.9,11.7-4.3,2.1-8.6,3.6-12.8,4.5-.5.1-1,.2-1.5.3-2.2.4-4.4.6-6.5.7-6.5.2-12.8-1-17.2-3.7-11.8-7.3-12.7-16.9-12-19.9v.5c0,1.6.8,3.6,2.2,5.3,1.4,1.8,3.4,3.5,5.8,4.9s5.3,2.6,8.6,3.3c1.7.3,3.5.5,5.3.4,1.9,0,4-.6,5.7-1.3,1.6-.6,3.1-1.4,4.6-2.2.2-.1.5-.3.7-.4,5-2.9,9.7-6.9,13.9-11.7,2.8-3.2,5.2-6.7,7-10.3,1.9-3.6,3.2-7.4,3.7-11.2.4-1.9.3-3.8.3-5.6-.1-.9-.2-1.8-.4-2.7-.1-.5-.1-.8-.3-1.4-.2-.6-.4-1.1-.7-1.6-1.1-1.9-2.6-2.8-3.9-3.7-1.2-.8-2.5-1.6-3.7-2.2-5-2.6-9.5-3.3-12.5-3.5-1.5-.1-2.7-.1-3.5,0s-1.2.1-1.2.1c0,0,.4.1,1.2.2.8.1,1.9.3,3.3.7,2.8.7,6.9,2.2,11,5.2,1,.7,2,1.6,3.1,2.5,1,.9,2,1.9,2.4,2.8.2.4.2.7.2,1.6,0,.7.1,1.5.1,2.2-.2,1.5-.2,3.1-.7,4.6-.7,3.1-2,6.3-3.8,9.4-1.7,3.1-4,6.2-6.5,9.1-3.4,3.9-7.2,7.4-11.1,10.2-.1.1-.3.2-.4.3-1.7,1.2-3.4,2.3-5.2,3.1-1.5.7-2.7,1.2-4.2,1.4-1.4.2-2.9.2-4.3.1-2.9-.2-5.6-1-7.9-1.9-4.7-1.9-7.9-4.9-8.4-7.6-.3-1.4,0-2.5.3-3.2s.5-1.1.5-1.1c0,0-.3.3-.7,1-.1.2,11.3-20.5,13.5-23.8,2.6-4.1,5.4-8.4,8.2-12.8,1.5-2.4,3.1-4.8,4.7-7.3.2-.4.5-.7.7-1.1,1.2-1.9,2.4-3.8,3.6-5.7,1.2-1.9,2.5-3.8,3.7-6,2.3-4.1,4.6-8.2,6.9-12.4,1.2-2,2.3-4.2,3.7-5.7,1.6-2,3.1-4.1,4.6-6.2,2.8-4.3,5.4-8.6,8.1-13s5.3-8.7,7.9-12.9c2.5-4.3,5.3-8.4,7.4-13.1.2-.3.3-.7.4-1,.7-1.5,1.2-3.1,1.6-4.7.8-3,1.4-6.1,1.6-9,.4-4.8.2-9.4.6-13.7.1-.9.2-1.7.2-2.6.2-2,.4-4,.7-6,.3-2.1.7-4.2,1.1-6.3.3-1.6.6-3.2,1-4.7,1.3-5.5,3-10.6,4.9-15.3.5-1.1.9-2.2,1.4-3.3.9-2.1,1.9-4.2,2.9-6.1,3-5.9,6.2-11,9.4-15.3,1.5-2.2,3.1-4,4.5-5.8,1.5-1.7,2.9-3.3,4.1-4.7,2.6-2.7,4.6-4.8,6.1-6.1s2.2-2,2.2-2c0,0-.8.6-2.4,1.9-1.6,1.2-3.8,3.1-6.6,5.6-1.3,1.3-2.9,2.8-4.5,4.4-1.5,1.7-3.3,3.5-5,5.6-3.5,4.1-7.1,9.1-10.5,15-.3.5-.6,1.1-.9,1.7-.4-5.3-.3-11.6.6-18.4,1.1-9,3.1-17.2,4.7-23.2s2.7-9.7,2.7-9.7c0,0-.6.8-1.6,2.2-1,1.5-2.4,3.6-3.9,6.4-3,5.5-6.6,13.7-7.9,23.5-1.2,9.5.5,18.2,2.8,24.1-.2.4-.4.9-.6,1.3-4.5-4.6-7.9-8.8-10.2-11.7-2.5-3.3-3.8-5.2-3.8-5.2,0,0,.9,2.2,3,5.9,2,3.5,5.1,8.5,9.6,14-.3.7-.6,1.3-.8,2l-.7-.4c-1-.5-1.9-1-2.8-1.5-1.8-1-3.6-1.9-5.2-2.7-3.2-1.6-6-3.1-8.3-4.2-4.6-2.2-7-3.5-7-3.5,0,0,2.4,1.6,6.6,4.5,3.9,2.5,9.4,6.2,16.3,10.6-.3.9-.7,1.8-1,2.7-10.1-3.9-18.8-5.3-24.7-5.9-3.1-.3-5.5-.4-7.1-.4h-2.5s.9.1,2.5.3,4,.6,7,1.2c5.9,1.2,14.2,3.4,23.7,7.8-.3,1-.6,1.9-.9,2.9-3.2-1.3-6.7-2.4-10.4-3.1-9.3-1.8-17.9-1.1-23.9-.1-3,.5-5.4,1.1-7,1.6s-2.5.8-2.5.8c0,0,.9,0,2.6.1s4.1.2,7.1.5c5.9.5,14,1.3,22.6,3,3.6.6,7,1.5,10.1,2.4-.2.9-.4,1.9-.6,2.8-11.7-3.7-21.6-4.6-28.4-4.7-3.7,0-6.5.1-8.4.3-1.9.2-2.9.3-2.9.3h3c1.9.1,4.8.2,8.4.5,6.8.7,16.6,2.3,27.7,6.6,0,.1-.1.2-.1.3-7.2-2-13.9-2.2-18.7-1.9-5,.2-8.1.8-8.1.8,0,0,3,1,7.7,2.2,4.8,1.3,11.2,2.9,18.1,4.9h0c-.2,1.2-.3,2.5-.5,3.7-.1,1.2-.2,2.3-.3,3.5-11.6-2.9-18.6-4.3-18.6-4.3,0,0,7,3,18.4,7.2-.1,1.7-.2,3.4-.3,5.1-8.9-2.6-14.2-3.8-14.2-3.8,0,0,5.2,2.7,14,6.6-.1,1.1-.3,2.1-.5,3.1-5-1.3-9.3-1.8-12.4-1.9-3.9-.2-5.9.1-5.9.1,0,0,2.1.2,5.9,1,3,.6,7.1,1.7,11.8,3.6-.2.8-.4,1.7-.7,2.5-4.6-.4-9.5-.9-14.6-1.5-11.4-1.5-21.7-3.1-29-5.2-3.6-1-6.5-2.1-8.5-2.9-2-.9-3-1.4-3-1.4,0,0,.9.8,2.5,2.2,1.7,1.4,4.4,3.2,7.9,4.9,7,3.6,17.5,6.9,29.4,8.4,4.5.5,8.9.8,13,.8-.6,1.1-1.2,2.2-1.8,3.3-18.9-5.1-30.4-7.7-30.4-7.7,0,0,10.9,4.2,28.8,10.3-.7,1.1-1.4,2.2-2.1,3.4-10.3-3.5-18.7-5.8-24.5-7.3-5.9-1.5-9.2-2.1-9.2-2.1,0,0,3.2,1.2,9,3.2,5.6,2,13.5,5,23,8.9-.7,1.2-1.5,2.4-2.2,3.6-24.9-9.1-40-14.1-40-14.1,0,0,12.1,5.5,32.1,14.1-.3.1-.5.3-.8.4-1.1.6-2.5,1.3-4.2,2.2l.1-.2c-16.8-7.6-27-11.7-27-11.7,0,0,9,5.4,23.7,13.5-1.5.7-3.2,1.4-5,2.1-.1.1-.3.1-.4.1-8.8-3.6-15.6-7.1-20.5-9.7-5.4-2.9-8.3-4.7-8.3-4.7,0,0,2.7,2.2,7.9,5.7,4.1,2.7,9.7,6.3,16.9,10h-.1c-1.9.5-3.9.7-6.1.9-19-9.5-30.5-14.7-30.5-14.7,0,0,9.3,5.8,24.8,14.8h-1.2c-2-.1-3.9-.1-5.8-.2-7.6-3.2-13.4-6.4-17.4-8.7-4.1-2.5-6.3-3.9-6.3-3.9,0,0,1.9,1.9,5.8,4.9,2.7,2.1,6.4,4.8,11.1,7.5h-1c-1.5-.1-3-.2-4.3-.4h-.1c-10-4.6-17-10.6-21.4-15.2-2.4-2.5-4.1-4.6-5.2-6.1s-1.7-2.2-1.7-2.2c0,0,.5.9,1.4,2.5,1,1.6,2.5,3.9,4.7,6.7,3,3.7,7.5,8.4,13.7,12.7-2.1-.7-3.7-1.4-5-2.1-.8-.4-1.4-.8-1.8-1.1-.4-.3-.6-.4-.6-.4,0,0,.2.2.5.6s.7,1,1.4,1.6c1,1.1,2.7,2.5,4.9,3.8-.8-.1-1.4.1-2,.4-7-3.3-12.3-7-15.8-9.8-2-1.6-3.5-2.9-4.5-3.8s-1.5-1.4-1.5-1.4c0,0,.5.6,1.3,1.6.9,1.1,2.2,2.6,4.1,4.4,3.2,3.2,6.6,6.6,12.8,10.3-.5.2-1.3.4-2.5.7-7.9-4-15.9-8.7-20-11.2-4.5-2.7-6.9-4.3-6.9-4.3,0,0,2.2,2,6.3,5.2,3.8,3,9.4,7.1,16.6,11.4-.5.1-1,.3-1.6.5-1.1.3-2.3.7-3.5,1-7.8-2.7-13.6-6.4-17.3-9.2-1.9-1.5-3.4-2.7-4.3-3.5-.9-.9-1.4-1.3-1.4-1.3,0,0,.4.5,1.2,1.6.8,1,2.1,2.5,3.9,4.2,2.9,2.8,7.4,6.5,13.5,9.6-1.8.5-3.5,1-5.4,1.5-6.9-3.9-12.3-7.5-16-10.2-4-2.9-6.1-4.6-6.1-4.6,0,0,1.8,2.1,5.5,5.5,3,2.8,7.3,6.4,12.8,10.3-1.5.4-2.9.8-4.4,1.3-7.5-3-13.4-6-17.5-8.3-4.8-2.7-7.4-4.3-7.4-4.3,0,0,2.3,2.1,6.9,5.3,3.4,2.4,8,5.4,13.9,8.4-1.7.5-3.5,1-5.2,1.4-8.2-3.6-14.7-6.9-19.2-9.3-5-2.6-7.6-4.2-7.6-4.2,0,0,2.5,2,7.2,5.2,3.8,2.6,9,5.9,15.5,9.5-1.5.4-3.1.9-4.5,1.3-7.4-3-13.3-6-17.5-8.4-5.2-3-8-4.8-8-4.8,0,0,2.5,2.3,7.5,5.8,3.6,2.6,7.1,5.7,12.6,8.9-.8.2-1.7.5-2.5.7-9.4-3.7-16.6-7.5-21.5-10.4-5.2-3.1-8-5-8-5,0,0,2.5,2.3,7.5,5.9,4.1,3,9.9,6.8,17.4,10.6-.3.1-.6.1-.9.2-4.7.1-13-2.2-16.5-4-3.5-1.9-6.5-3.7-9-5.1-4.9-2.8-7.6-4.3-7.6-4.3,0,0,2.6,1.9,7.2,5.3,2.3,1.7,5.1,3.8,8.5,6,2,1.2,4.3,2.6,7,3.6-3,0-5.5-.4-7.4-1-1.3-.4-2.3-.9-2.9-1.3s-1-.6-1-.6c0,0,.3.3.8.8s1.4,1.2,2.7,1.9c2.5,1.5,6.6,2.8,11.8,2.9,1,0,2.1,0,3.1-.1-1.2.9-2.4,1.8-3.8,2.9-8.6-3.3-15.5-6.2-20.2-8.2-4.8-2.1-7.5-3.3-7.5-3.3,0,0,2.5,1.6,7.1,4.3,4.2,2.4,10.2,5.7,17.8,9.3-1.2.9-2.5,1.8-3.8,2.8-8.2-2.2-14.3-5.4-18.3-7.8-2.1-1.3-3.6-2.3-4.6-3.1-1-.7-1.6-1.1-1.6-1.1,0,0,.5.5,1.4,1.4s2.3,2.2,4.3,3.7c3.5,2.8,8.7,6.3,15.9,9.1-1.3,1-2.7,2-4.1,3.1-6.5-2.8-11.6-5.5-15.1-7.6-3.8-2.2-5.9-3.6-5.9-3.6,0,0,1.8,1.7,5.4,4.6,3,2.4,7.3,5.4,13,8.6-1.3,1-2.6,1.9-3.9,2.9-7.6-3.2-13.5-6.2-17.6-8.4-4.4-2.4-6.8-3.8-6.8-3.8,0,0,2.2,1.8,6.3,4.8,3.6,2.5,8.8,5.9,15.4,9.4-.9.7-1.9,1.4-2.8,2.1-.3.2-.6.5-1,.7-7.5-2.7-13.4-5.5-17.5-7.6-4.8-2.4-7.4-3.9-7.4-3.9,0,0,2.4,1.9,6.9,4.9,3.7,2.4,8.8,5.4,15.3,8.5-1.6,1.2-3.2,2.3-4.8,3.4-7-2.4-12.4-4.9-16.2-6.7-4-2-6.2-3.2-6.2-3.2,0,0,1.9,1.6,5.7,4.2,3.2,2.2,7.8,5,13.8,7.8h0c-1,.7-1.9,1.3-2.9,1.9-.6.4-1.3.8-1.9,1.2-15.5-5.5-24.9-8.3-24.9-8.3,0,0,8.1,4.1,21.6,10.1-1.3.6-2.5,1.1-3.8,1.6-7.5-.6-13.5-2.2-17.6-3.7-2.2-.8-3.9-1.5-5-2s-1.7-.8-1.7-.8c0,0,.5.4,1.6,1.1s2.6,1.6,4.8,2.7c2.9,1.5,6.9,3.2,11.9,4.5-2.8.7-5.1,1.1-6.9,1.3-2.3.3-3.6.3-3.6.3,0,0,1.2.3,3.6.6,2.3.3,5.7.5,10,0,2.1-.2,4.4-.6,6.8-1.2-1.7,1.7-3.6,3.4-5.6,5.2l.1-.4c-9.2-1.9-16.3-4.4-21.1-6.3-4.8-1.9-7.4-3.2-7.4-3.2,0,0,2.4,1.7,7,4.2,4.3,2.3,10.7,5.4,18.9,7.8-1.7,1.4-3.5,2.9-5.5,4.3-6.8-1.6-12.3-3.4-16-4.7-3.9-1.4-6.1-2.3-6.1-2.3,0,0,2,1.3,5.7,3.3,3.2,1.7,7.7,3.8,13.4,5.9-2.1,1.5-4.3,3-6.6,4.5l.1-.3c-10.1-4.3-16.4-6.5-16.4-6.5,0,0,5.1,3.5,13.6,8.5-1.1.7-2.2,1.4-3.3,2-4.8-1.5-8.7-3-11.4-4-2.9-1.1-4.4-1.8-4.4-1.8,0,0,1.4,1.1,4,2.8,2.1,1.3,5,3.1,8.7,4.9-1.3.7-2.5,1.5-3.8,2.2-.2.1-.3.2-.5.3-4.6-2.1-8.4-3.6-11.2-4.6-3.4-1.2-5.3-1.8-5.3-1.8,0,0,1.8,1,4.9,2.8,2.3,1.3,5.2,3,8.8,5.1-2.1,1.1-4.3,2.3-6.5,3.4-4.3-1.6-7.7-3.2-10.2-4.4-2.9-1.5-4.5-2.4-4.5-2.4,0,0,1.3,1.3,4,3.3,1.8,1.4,4.4,3.2,7.5,5-1.5.7-3,1.4-4.6,2.1-4-1.5-7.2-2.9-9.5-3.9-2.6-1.2-4-1.8-4-1.8,0,0,1.2,1.1,3.5,2.8,1.6,1.2,3.9,2.7,6.6,4.3-1.5.6-3.1,1.2-4.7,1.6-4.1-1.7-7.6-2.8-10.1-3.5-2.8-.7-4.4-1-4.4-1,0,0,1.5.7,4,2.1,1.7.9,3.9,2.1,6.5,3.5-3.2.7-6.4,1.2-9.6,1.2-7-.1-13.9-2.7-18-7.5-1.8-2-3-2.6-2.8-4.5,4.4-2.8,11.8-9.6,19.5-16.2,3-2.6,5.8-5.1,8.3-7.6,1.2-1.2,2.4-2.4,3.4-3.6.5-.6,1-1.2,1.5-1.9.4-.6.8-1.3,1-1.9.6-1.3.7-2.8.5-3.9-.3-1.1-.6-1.9-.9-2.6-.4-1-.7-1.6-.8-1.9,1.9-2.8,3.7-5.4,5.5-7.6,1.5-2,12.1-9.6,13.5-11.1l-.1.1c5-3.7,11.5-9.4,18.2-17.3,1.9-2.2,3.8-4.5,5.6-7.1,1.9-2.6,3.7-5.2,5.7-7.7,2-2.6,4.2-5.2,6.6-7.8,1.2-1.3,2.4-2.6,3.6-3.7,1.2-1,2.6-1.9,4.1-2.7,3.1-1.6,6.8-2.7,10.6-4.5,3.8-1.9,7.1-3.8,10.8-5.8,7.2-4,14.5-8.3,22-12.8s14.7-8.8,21.8-12.8c3.6-2,7.1-4,10.5-5.9,3.5-2,6.9-4.2,9.9-6.7,3.1-2.6,5.6-5.2,8.2-7.7,2.5-2.5,4.9-5,7.3-7.4,2.3-2.4,4.6-4.7,6.8-6.7.6-.5,1.1-1,1.7-1.4,4.6-1.7,10.4-4.1,16.7-8.4,3.8-2.6,8-5.4,12.4-8.6,2.2-1.6,4.5-3.3,6.8-5.3,1.2-1.1,2.2-2.2,3.2-3.2,1-1.1,2.1-2.2,3.1-3.3,8.3-9.1,16.8-19.5,25.5-30.5,8.8-11,17.1-21.4,25.1-30.5,7.9-9,14.4-16,21.4-21.8-3.1,5.6-6.2,9.5-7.9,14-2.5,6.3-5.7,23.2-6.2,26.8.7-3.5,6.2-19.7,8.9-25.9,2.4-5.5,5.8-11.9,10.3-18.8.5-.8,1.1-1.7,1.7-2.5.6-.9,1.3-1.8,1.9-2.7,5.1-7,11.4-14.6,19.9-20.9,9.5-7.3,21.4-13,33.9-20,6.2-3.5,12.6-7.5,18.6-12.5,3-2.6,5.8-5.1,8.6-8.4,2.6-3.3,4.6-6.8,6.6-10.4,1.9-3.6,3.7-7.2,5.7-10.6,1-1.7,2-3.3,3.3-4.8,1.2-1.6,2.5-3.1,3.8-4.7,2.7-3,5.7-5.9,8.8-8.5,3.2-2.7,6.6-5.2,10.1-7.5,7.1-4.7,14.8-9,22.7-13.4,2-1.1,4-2.2,5.9-3.4,2.1-1.2,4-2.6,5.9-3.9,3.8-2.7,7.4-5.6,11-8.5s7.1-5.8,10.7-8.7c1.8-1.4,3.6-2.8,5.4-4.2,1.8-1.5,3.5-3,5.2-4.5,6.8-6.1,13.1-12.3,19.2-18.6,3.1-3.1,6-6.3,8.9-9.4,2.9-3.1,5.7-6.3,8.5-9.3,3.1-3.3,21.2-28.9,23-32.5-6.4,4.9-21,22.6-27,28.7-2.9,3.1-5.8,6.2-8.7,9.3-2.9,3.1-5.9,6.2-8.9,9.3-6.1,6.1-12.4,12.3-19.1,18.2-1.7,1.5-3.4,2.9-5.1,4.3-1.8,1.4-3.6,2.8-5.4,4.2-3.5,2.9-7.1,5.8-10.7,8.7-3.6,2.9-7.1,5.7-10.7,8.4-1.8,1.3-3.6,2.6-5.4,3.7-1.9,1.1-3.9,2.2-5.8,3.3-7.8,4.4-15.6,8.8-23,13.8-3.7,2.5-7.2,5.2-10.5,8-3.3,2.9-6.4,6-9.3,9.2-1.4,1.7-2.8,3.3-4,5-1.3,1.7-2.5,3.6-3.6,5.4-2.1,3.7-3.8,7.4-5.7,10.9-1.8,3.5-3.7,6.9-5.9,9.7-2.3,2.7-5.1,5.4-7.8,7.9-5.6,4.8-11.7,8.8-17.7,12.4-12.1,7.2-24.1,13.4-33.7,21.2-9.7,7.7-16.3,16.8-21.6,24.9-.2.2-.3.5-.4.7-1.7,1.1-3.5,2.2-5.3,3.5-7.6,5.4-16,12.8-24.5,21.6s-17.3,19.1-26.1,30.1c-8.8,11-16.9,21.6-24.7,30.9-1,1.2-1.9,2.3-2.9,3.4-1,1.1-1.9,2.3-2.8,3.1-1.9,1.9-4.1,3.7-6.2,5.4-3,2.4-5.8,4.7-8.5,6.8-.2.1-.4.2-.7.4-3.9,2.2-8.6,4.3-13.7,6.9-2.6,1.3-5.3,2.8-7.9,4.9-1.6,1.3-3.1,2.6-4.7,4-1.3.6-2,1.8-2.7,2.4-2.5,2.3-5,4.6-7.6,7s-5.4,4.9-8.1,7.1c-2.9,2.2-6,4.1-9.4,5.9-3.5,1.9-7,3.8-10.6,5.7-7.2,3.9-14.6,8.2-22,12.7-7.5,4.5-14.7,8.8-21.7,12.9-3.5,2-7.1,4.1-10.3,5.9-3.3,1.7-7,3-10.6,4.9-1.8,1-3.5,2.1-5.1,3.6-1.5,1.5-2.6,2.8-3.8,4.2-2.3,2.8-4.4,5.6-6.4,8.4s-3.7,5.6-5.4,8.1c-1.7,2.6-3.4,5-5.1,7.3-3.1,4.1-6.1,7.7-8.9,10.8-.6.5-14,11.6-18,14.8-.2.2-.4.3-.6.5,0,0,.1,0,.1-.1-.3.3-.6.5-.6.5-1.1.9-2,1.7-2.6,2.4-2.8,3-5.7,6.6-8.8,10.6-3.2,3.9-6.6,8.2-10.9,12.2-1.1,1-2.1,2-3.3,2.9-1.2,1-2.4,1.9-3.7,2.9-2.5,2-5,4.2-7.5,6.6-1.3,1.2-2.5,2.4-3.7,3.8-.6.7-1.2,1.4-1.8,2.2-.6.9-1.2,1.6-1.7,3-.8,2.5-.5,4.8.1,7,.7,2.1,1.8,4,3.2,5.6,2.7,3.2,6.2,5.7,10.1,7.3,3.9,1.6,8.1,2.4,12.3,2.5,8.5.1,16.2-2.6,23-5.6,6.8-3.1,13.1-6.5,18.9-10.1,11.6-7.2,21.2-14.8,28.6-22,3.5-3.4,6.5-6.7,8.9-9.8,1.2-.5,2.5-1,3.7-1.7,5-2.5,10.2-5.8,15.3-9.6,10.2-7.6,18.4-15.6,24.1-21.7,1.4-1.5,2.7-2.9,3.8-4.2.3-.4.6-.8.9-1.2,3.7-.4,7.7-1,11.9-1.8,1.2-.2,2.4-.5,3.6-.7h0c5.5-1.1,11.4-2.5,17.4-4.2,8.8-2.5,16.9-5.4,24-8.3.7-.1,1.5-.2,2.2-.4,1.7-.5,3.1-1.4,4.3-2.3,2.2-1,4.3-1.9,6.2-2.8.3-.1.5-.3.8-.4,2.6,1.1,5.8,2.1,9.2,2.7,4.4.8,9.1,1.2,14.1,1.4,4.6.2,9.4-.3,13.5-1.7-.5,2.4-1.1,5-1.8,7.7-1.4,5.2-3.1,10.9-4.8,16.9-.9,3-1.7,6-2.3,9.1-.2.8-.3,1.5-.4,2.3-.1.7-.2,1.7-.3,2.3-.1,1.4-.2,2.8-.4,4.2-.1,1.2-.2,2.3-.2,3.4-4.3,7.2-8.4,14.1-12.2,20.6-2,3.4-3.9,6.7-5.8,9.9-1.9,3.1-3.7,6.4-5,9.5-2.1,5-3.2,7.6-2.9,12.2-.2-.3.4,18.3,21.5,22.7q3.5.9,10.6,1.1c2.4.1,4.9-.1,7.5-.5,2.5,7.9,5.7,17.1,9.7,27.4,3.4,8.4,7.2,17.7,13.1,26.7,5.9,9,13.2,17.7,20.5,27.1,7.4,9.3,15.2,19.1,23.3,29.2,1,1.3,2,2.5,3.1,3.8l1.5,1.9c.5.7,1.2,1.5,2.2,2.3s2.6,1.4,3.9,1.5,2.3-.1,3.2-.3c1.9-.4,3.7-1,5.4-1.8,6.9-3.3,12-9.5,14.6-16.6,1.1-3,1.7-6.2,1.9-9.3,3.8.1,12.1-1.2,15.8-3,4.1-1.9,7.9-5.8,10.2-11,2.3-5.2,3.1-11.5,2.2-18.1s-3.4-13.2-6.6-19.6c-1.6-3.2-3.3-6.5-5-9.7-1.6-3.2-2.7-6.2-2.6-9.6-.1-3.4.7-7.1,1.5-11s1.3-8.4,1.1-12.7c-.3-8.7-2.8-17-6.8-24l-.8-1.3-.2-.3h0l-.1-.1-.1-.2h0l.2-.3.4-.6c.3-.4.5-.8.8-1.3.5-.9,1.1-1.7,1.5-2.5,1.9-3.4,3.3-7,4.3-10.5,2.1-7.1,2.9-14,3.3-20.3.3-6.4.3-12.3.2-17.6,0-.4,0-.9-.1-1.3.4-.7.9-1.3,1.6-1.7.6-.3,1.4-.4,2.1,0,1.4.7,2.4,2.7,3,4.8.1.5.2,1,.3,1.6.1.6.2,1.2.3,1.8.2,1.2.4,2.5.6,3.8.8,5.1,1.7,10.8,2.7,16.8,1,6.1,1.9,12.4,3.4,19.4.8,3.4,1.9,7.1,3.5,10.5s3.5,6.7,5.4,9.9c3.9,6.4,7.9,13.1,12.6,19.7s9.9,12.7,15.8,17.8c2.9,2.6,6.1,4.8,9.2,6.8,1.6,1,3.2,1.9,5,2.7,1.8.8,3.9,1.4,6.2,1.3,2.3-.1,4.4-1.1,5.9-2,1.6-1,2.8-1.9,4.2-2.9,2.7-2,5.3-4.1,7.4-6.7s3.6-5.8,3.9-9c.3-3.3-.5-6.2-1.6-8.7-1-2.5-2.3-4.7-3.6-6.7-1.2-2-2.5-3.9-3.7-5.6-.5-.7-1-1.4-1.5-2h0c-.5-2-6.2-11-12.2-16.8-.6-.6-4.6-20.1-6.8-23.2-.7-1-.2-.4,0,0,2.2-2.3,1.8-4,3-7.3,1.5-4.3,1.7-8.6,1.3-12.3-.1-.9-.1-2.2-.2-3.6l.1-.2h-.1c-.1-4.6,0-10.8-.7-12.7-.1-.3-.2-.5-.4-.6,1.7-.7,6.2-1.9,8.8-3.5,2.7-1.7,6.1-3.4,9.5-6.6,1.7-1.6,3.8-3.5,5.3-5.7,1.6-2.1.8-5.6,1.7-8.5.3-.7.5-1.5.6-2.2.1-.8.3-1.5.4-2.4l.1-1.2v-1.9h.1l.5-.2q.2-.1.7-.3c.8-.3,1.5-.6,2.3-.9,1.5-.7,3.1-1.4,4.6-2.3,6.1-3.3,12-8,17.2-13.7,5.3-5.7,9.7-12.6,14.5-18.9s10.8-12.5,15.7-20.2c5-7.8,7.3-16.5,9.4-24.3,1.1-3.9,2.1-7.8,3.3-11.4,1.2-3.6,2.7-7.1,4.2-10.5,3-6.8,6.1-13.3,8.5-19.7s4.1-12.5,5.1-18.2c.8-4.7,1.6-4.9,1.5-8.9,1.9-1.4,5.5-5.3,7.6-6.8,5.6-4,10-10,17.4-14.3,7.5-4.2,15.9-8.5,25.4-11.9,4.7-1.8,9.7-3.2,14.9-4.6,5.2-1.3,10.5-2.3,16.3-3.4,11.3-2.2,23.1-4.8,35.2-7.8,6.1-1.5,12.3-3,18.5-5,6.3-1.9,12.5-4.5,18.6-7.1,6.1-2.7,12-5.2,18-8,3-1.3,5.8-2.8,8.7-4.2,2.9-1.4,5.7-2.8,8.5-4.3,3.3-1.7,6.6-3.5,9.8-5.2-7.5,1.3-41,12.5-47.1,15.1Zm-315,184.3l.4.6h-1.9c.5-.2,1-.4,1.5-.6Zm-340,51.4c-1.3,1.3-2.5,2.6-3.7,3.7-.1.1-.5.4-1.1.8,1.8-1.6,3.7-3.4,4.8-4.5Zm-5.1,4.8c.7-.5,1.3-1,1.4-1.1-1.7,1.6-3.3,3.1-4.7,4.3-1,.9,1-.9,3.3-3.2Zm-51.2,52.6c1-1.2,15.1-13.5,16.2-14.6,4.3-4.4,10-8.9,12.8-13.1.8-1.2,1.6-2.3,2.3-3.4,0,.3.1,1,.2,2,.2,1.5.7,3.6-.7,5.4-.3.5-.7,1-1.2,1.5-.4.4-.9.9-1.5,1.4-1.1,1-2.4,2-3.7,3-2.7,2.1-5.6,4.5-8.6,7.1-5.8,4.9-10.8,9.7-14.5,13.3.1-.1.2-.3.2-.2-2.3,1.2-4.4,1.2-1.5-2.4Zm270.9-89.6c.3-.4.6-.7.9-.9,1.8.8,3.7,1.6,5.7,2.4-.7,1.1-1.4,2.3-2.1,3.4-2.8-1.1-5.2-1.8-7-2.2h-.2c1.1-1.1,2-2,2.7-2.7Zm-5.8,5.2c.8-.7,1.6-1.3,2.3-1.9.2.1.4.2.6.3,1.5.9,3.6,2,5.9,3.5-.7,1.1-1.3,2.2-2,3.3-3.4-1.9-6.3-3.1-8.6-3.8.7-.5,1.3-.9,1.8-1.4Zm-7.2,4.7c.4-.2.8-.5,1.2-.7.1.1.2.1.4.2l.2-.5c.9-.5,1.8-1.1,2.6-1.6.1.1.2.1.3.2,2.1,1.2,4.8,3,7.9,5.3-.5.9-1.1,1.7-1.6,2.5-4.5-2.1-8.3-3.7-11-4.8v-.6Zm0,2c2.4,1.6,5.6,3.6,9.5,6-.4.7-.8,1.4-1.3,2-.2.3-.4.5-.5.8-3.2-1.9-6-3.2-8.1-3.9.2-1.8.3-3.4.4-4.9Zm-.9,8.5c.1-.8.2-1.6.3-2.4,1.8,1.2,4,2.9,6.6,5.1-.6.8-1.2,1.6-1.8,2.3-2.4-1.2-4.3-2-5.6-2.6.2-.8.4-1.6.5-2.4Zm-.6,3.3c1,.9,2.4,2.2,4.2,3.7-.7,1-1.3,2.1-1.9,3.1-1.4-.5-2.6-.9-3.6-1.2.6-2,.9-3.8,1.3-5.6Zm-1.4,6.6c.7.6,1.6,1.3,2.7,2.2-.9,1.7-1.8,3.3-2.6,4.9-.7-.2-1.3-.3-1.8-.4.5-2.3,1.1-4.5,1.7-6.7Zm-2.1,8c.3.3.7.7,1.1,1.2-1,1.8-1.9,3.6-2.8,5.4-.1.1-.1.2-.2.3.5-2.3,1.2-4.6,1.9-6.9Zm133.3-53.4l.3,1c-.6-.1-1.2-.3-1.7-.4.5-.3,1-.4,1.4-.6Zm-72.8,108c.6-1.1,1.1-2.1,1.6-3.2-.3,1.5-.7,3-1,4.6l-1.2-.3c.2-.5.4-.8.6-1.1Zm-2.1,3.5c.7.1,1.4.2,2.1.3-.4,1.5-.8,3.1-1.3,4.7-1.1-.4-2.2-.8-3.4-1.2.9-1.2,1.8-2.5,2.6-3.8Zm-4.5,6.2c1.6.5,3.1.9,4.5,1.3-.3,1.1-.7,2.3-1,3.6-1.8-.7-3.8-1.4-5.9-2.1.9-.9,1.7-1.8,2.4-2.8Zm-4.5,5.1c2.8.7,5.3,1.3,7.7,2-.1.4-.1.9-.1,1.3,0,.3,0,.1,0,0-.6-.5-1.2.5-2.2-.1-1.6-1-3.8-1.8-6.2-2.4.3-.2.5-.5.8-.8Zm4.4,6.1c1.5.1,2.6.3,3.4.5h.1c.2.7.4,1.4.6,2.1-4.2-1.5-7.9-2.2-10.4-2.6-.6-.1-1.2-.1-1.7-.2,3.2.2,5.9.1,8,.2Zm24.1,84.2c4.6,1.6,11.1,3.9,19.1,6.9.9,2,1.6,4,2.2,6-16.1-4.1-25.7-6.2-25.7-6.2,0,0,10.2,3.9,26.6,9.5.6,2.5.9,5.2.9,7.8-12.4-4-19.7-5.9-19.7-5.9,0,0,7.4,3.6,19.6,8.9-.1,1.5-.4,3.1-.7,4.6-4.3-1.3-7.9-2.2-10.5-2.7-3.2-.7-5-.9-5-.9,0,0,1.7.7,4.8,1.9,2.5,1,5.9,2.5,9.9,4.3v.2c-.6,1.6-1.3,3.1-2.2,4.5-7.6-2.1-12.2-3-12.2-3,0,0,4,2.2,10.7,5.3-1,1.3-2.1,2.5-3.4,3.6-1.8-.2-3.3-.3-4.5-.3-2.2.1-7.1-.5-7.1-.5,0,0,5,1.1,7,1.6.7.2,1.6.5,2.5.8-.8.5-1.6,1-2.4,1.4-1.3.6-2.7,1.1-4,1.4-.7.2-1.3.2-1.7.2s-.4,0-.7-.2c-.6-.4-1.8-2-2.8-3.2-1-1.3-2.1-2.5-3.1-3.8-8.3-10-16.2-19.6-23.8-28.8-7.6-9.2-15.1-17.7-21.1-26.2s-6-12.1-9.6-20.3c-1.4-3.2-2.8-6.9-4.2-10.7,4.2,2.3,6.6,3.5,6.6,3.5,0,0-2.9-2.9-8-7.2-.8-2.3-1.6-4.7-2.3-6.9,2.8,1.2,5.2,2,7.1,2.6,2.7.8,4.2,1.2,4.2,1.2,0,0-1.4-.8-3.8-2.2-2.2-1.3-5.2-3.1-8.7-5.3-.5-1.4-.9-2.8-1.4-4.1,5.2,2.3,9.6,4,12.9,5.1,4.6,1.6,7.1,2.3,7.1,2.3,0,0-2.4-1.2-6.8-3.3-3.6-1.8-8.4-4.3-14-7.5,1.2-.2,2.1-.4,2.9-.7v.1c8.8,1.6,15.9,3.1,20.8,4.2,4.8,1.1,7.5,1.7,7.5,1.7,0,0-2.6-1.1-7.3-2.8-3.9-1.4-9.4-3.2-16.1-5.1.6-.2,1.1-.5,1.8-.8,1.4-.6,2.8-1.3,4.1-1.9,5.7.6,10.3,2,13.4,3,3.1,1.1,4.7,1.9,4.7,1.9,0,0-1.4-1.2-4.3-2.9-2.3-1.3-5.5-2.9-9.7-4.2,1.2-.7,2.5-1.5,3.7-2.2,5.1.4,9.3,1.4,12.3,2.4,1.8.6,3.2,1.2,4.1,1.5.9.4,1.4.6,1.4.6,0,0-.4-.3-1.3-.9s-2.1-1.4-3.9-2.3c-2.3-1.2-5.5-2.5-9.4-3.5,2.4-1.7,4.8-3.5,7.1-5.4.5-.4,1-.8,1.4-1.2h.5c.7.2,2,.6,4,1.3,2.6.9,8.8,4.3,13.3,6.9.4.7.7,1.3,1.1,2-5.8-1.3-10.6-2.1-14.1-2.7-4.7-.7-7.3-1-7.3-1,0,0,2.6.8,7.2,2.1,4,1.2,9.4,2.8,16,4.9.8,1.6,1.6,3.3,2.3,5,.3.7.5,1.4.8,2.1-5.8-1.8-10.7-2.8-14.3-3.4-4.8-.8-7.5-1-7.5-1,0,0,2.7.6,7.4,2,4,1.2,9.4,3,15.7,5.7.7,2.2,1.4,4.4,2,6.6-7.6-2.3-13.9-3.9-18.4-5-5.4-1.3-8.4-1.8-8.4-1.8,0,0,3,1,8.3,2.9,4.8,1.7,11.4,4.1,19.4,7.3.5,2.3.9,4.6,1.2,7-14-3.3-22.4-4.9-22.4-4.9,0,0,8.7,3.4,22.8,8.1.2,1.9.3,3.9.4,5.9-13.4-3.8-21.4-5.7-21.4-5.7,0,0,8.2,3.6,21.6,8.8.1.6.2,1.2.3,1.8-1.5-.8-3.3-1.3-5.2-1.2-1.8.1-3.4.7-4.7,1.4-12.7-2.9-20-4.4-20-4.4,0,0,6.6,2.3,17.9,5.9-1.6,1.2-5.3,2.5-5.3,2.5,0,0,8.2-.7,10.3-.9h0c3.3,1,6.9,2.1,10.7,3.3,1.6,2.1,3.2,4.2,4.8,6.2.1.1.2.2.3.3-9.5-2.9-17.4-4.7-23.1-5.7-6.8-1.3-10.6-1.7-10.6-1.7,0,0,3.8.9,10.5,2.8,6.5,1.8,15.6,4.6,26.5,8.9,1.3,1.8,2.6,3.5,3.9,5.4-8.2-2.7-15.1-4.2-20.1-5.2-6.1-1.1-9.5-1.4-9.5-1.4,0,0,3.4.8,9.4,2.5,5.6,1.7,13.6,4.2,22.9,8.2.2.4.5.7.7,1.1.9,1.4,1.7,2.9,2.5,4.4-7.1-2-12.9-3.4-17.1-4.3-5-1.1-7.7-1.5-7.7-1.5,0,0,2.6.9,7.4,2.6Zm109.7-112c-1.1-.3-2.1-.6-3-.8.4-.3.8-.6,1.3-.9.4-.3.8-.7,1.2-1.1,0,.7.2,1.7.5,2.8Zm.8,3.6c.2.7.4,1.4.6,2.1-4.6-1.5-8.3-2.7-10.9-3.5.1,0,.2-.1.3-.1l.1-.3c1.4-.3,2.8-.8,4.2-1.6,1.2.7,2.6,1.5,4.4,2.4.4.5.8.8,1.3,1Zm27.7-75.3v1c0,.7-.1,1.4-.2,2,0,.1-.1.2-.1.4-8.6.5-15.7-.3-20.6-1.1-2.7-.5-4.7-.9-6.1-1.2-1.4-.3-2.1-.5-2.1-.5,0,0,.7.3,2,.8s3.4,1.3,6,2c4.7,1.4,11.5,2.9,20,3-.3,1-.7,1.9-1.1,2.7-8.6,1.1-15.6-.3-20.3-1.6-2.4-.7-4.1-1.4-5.3-1.9-1.2-.5-1.8-.8-1.8-.8,0,0,.6.4,1.7,1.1s2.9,1.7,5.2,2.7c4.2,1.8,10.7,3.8,18.8,3.7-.7,1.2-1.5,2.3-2.4,3.3v-.2c-10.4-.5-18.5-3.1-23.8-5.2-2.7-1.1-4.7-2.1-6.1-2.7-1.4-.7-2.1-1.1-2.1-1.1,0,0,.7.5,2,1.4s3.2,2.1,5.9,3.5c4.9,2.5,12.2,5.6,21.8,7-1.1.9-2.7,2-4.6,3.1-5.2-1.1-9.9-2.1-13.9-3.3-4.4-1.3-8.1-2.7-11-4.1s-5-2.7-6.4-3.6c-1.4-1-2.1-1.5-2.1-1.5,0,0,.7.6,2,1.8,1.3,1.1,3.3,2.7,6.2,4.4,2.8,1.7,6.5,3.5,10.9,5.1,3.1,1.2,6.7,2.3,10.5,3.3-1.9,1-3.9,1.9-5.7,2.6-10.4-2.8-18.6-5.8-24.2-8s-8.7-3.6-8.7-3.6c0,0,2.9,1.8,8.3,4.7,4.6,2.4,11.1,5.5,19.3,8.5-1.6.1-3.1.1-4.6.1-8.4-3.2-17.6-6.9-22.3-8.4-2.5-.7-4.6-.9-6-.7-1.4.2-2,.4-2,.4,0,0,.7-.2,2.1-.1,1.4,0,3.3.5,5.7,1.5,3.6,1.6,8.3,3.9,14.1,6.6-.6-.1-1-.1-1-.1,0,0,3.9,3.6,9.2,4.6,2.1.4,4.1.4,5.7.2v.3c0,.8.1,1.9.1,3.2-6.6-2.7-12.1-4.5-16.1-5.7-4.5-1.4-7-2-7-2,0,0,2.4,1.1,6.8,3,4,1.8,9.7,4.5,16.5,8,0,.8,0,1.7.1,2.6-6.4-3-11.9-5.1-15.9-6.5-5-1.7-7.8-2.5-7.8-2.5,0,0,2.7,1.2,7.5,3.5,4.1,2,9.7,4.9,16.2,8.6,0,1.2-.1,2.4-.1,3.6-7.6-3.8-13.9-6.2-18.4-7.8-4.8-1.7-7.4-2.4-7.4-2.4,0,0,2.6,1.2,7.1,3.4,4.5,2.2,10.8,5.6,18.4,10.1-.1,1.1-.3,2.1-.6,3.2-7.6-4.3-14.1-7.1-18.8-8.8-5.3-1.9-8.2-2.7-8.2-2.7,0,0,2.9,1.2,7.9,3.7,4.6,2.3,11,5.8,18.3,10.7,0,.1-.1.2-.1.3-.2.6-.5,1.2-.7,1.7-15.1-6.4-24.2-9.8-24.2-9.8,0,0,8.6,4.9,23,12.4-.7,1.3-1.5,2.5-2.4,3.6-10.7-5.2-17.1-7.9-17.1-7.9,0,0,5,3.7,15.2,10-1.2,1.1-2.4,2-3.7,2.7-4.1-1.5-7.5-3-9.8-4.1-2.8-1.3-4.2-2.2-4.2-2.2,0,0,1.2,1.2,3.7,3.1,1.7,1.3,4,2.9,6.9,4.5-5.5,1.6-11.4-.1-13.5-1-2.3-.9-3.6-1.6-3.6-1.6,0,0,1,1.1,3.1,2.6,3,2,5.7,2.9,8.1,3.3l-.2.2s.2-.1.4-.2c3.6.6,6.5-.1,8.5-.6,2.8,1.5,7.4,3.8,13.3,6.7.3,1,.7,2.1,1.1,3.2-8.2-3.6-15-5.9-20-7.4-5.7-1.8-8.9-2.5-8.9-2.5,0,0,3.1,1.2,8.6,3.6,5.3,2.3,12.9,5.7,21.8,10.4.1.2.2.4.2.6l.4.9.2.5c.1.2,0,.1.1.1s.3.2.5.5c0,.1-.1.2-.2.3-.1.1-.2.1-.4.2-.3.1-.6.2-.9.2-16.4-6.9-28.9-11.6-28.9-11.6,0,0,8.3,4.8,22.2,11.9-1.4.2-2.7.6-4,1-.5.1-.9.3-1.3.5l.3-.2c-5.6-2-10-4.1-13-5.5l-4.6-2.3s1.4,1.3,4.1,3.3c2.6,1.9,5.2,3.8,10,6.3-1.1.6-2.1,1.3-3.1,1.9-6-2.2-9.8-3.2-9.8-3.2,0,0,3.2,1.9,7,5.5l-.1.1c-2.4,2.4-3.8,4.6-4.6,6.1-.7,1.6-1.1,2.4-1.1,2.4,0,0,.4-.8,1.4-2.3,1-1.4,2.6-3.5,5.1-5.5,2.2-1.7,5.2-3.5,8.8-4.6,0,0,.9-.2,2.1-.4h-.4c.5-.1,1-.2,1.6-.3l-1.2.3c1.9.1,8.2.3,9.6.4.4,0,.8,0,1.1.1h1.1c1.8.4,3.4.8,4.9,1.4.5.6,1,1.3,1.6,2-1,0-1.9-.1-2.6,0h-3.7s1.2.5,3.4,1.3c1.1.4,2.4.8,4,1.4.4.1.8.3,1.2.5.8,1.1,1.7,2.4,2.6,3.8-1.5-.1-2.9-.1-4-.1h-3.6s1.2.5,3.4,1.3c1.1.4,2.4.8,4,1.4.8.3,1.7.6,2.5,1,.1.2.2.4.3.5.5.9,1.1,1.9,1.6,2.9-1.6-.1-2.9,0-4,.1-2.2.1-3.4.4-3.4.4,0,0,1.2.3,3.2,1,1,.3,2.3.7,3.7,1.2.7.2,1.5.5,2.2.8h0c.7,1.3,1.3,2.7,1.9,4.1-2.4-.7-4.5-1-6.1-1.3-2.3-.3-3.6-.2-3.6-.2,0,0,1.2.4,3.2,1.4,1.9,1,4.7,2.4,7.8,4.3.1.6.2,1.2.3,1.8-2.8-.6-6.1-1.3-7.4-1.3-1.7.1-2.6.2-2.6.2,0,0,.8.4,2.3,1.1,1.3.6,4.9,2.3,7.5,3.6-.1.6-.3,1.1-.5,1.6-1.7-.2-3.2-.2-4.3-.2-1.5.1-2.4.3-2.4.3,0,0,.7.4,2.1,1.1.8.4,1.9,1,3.2,1.6-.4.6-.9,1.2-1.4,1.7-5.8-1-9.6-1.1-9.6-1.1,0,0,2.5,1.5,6.9,3.7-.4.3-.8.7-1.3,1-2.9-.9-5.4-1.4-7.2-1.6-2.1-.3-3.3-.2-3.3-.2,0,0,1,.5,2.9,1.5,1.2.6,2.7,1.5,4.5,2.5-.5.3-1,.7-1.5,1-2-.1-3.9-.6-5.7-1.1-2.2-.7-4.1-1.5-5.7-2.2-3.1-1.4-4.9-2.2-4.9-2.2,0,0,.4.3,1,.9.7.6,1.7,1.4,3.1,2.4s3.1,2.2,5.3,3.4c.7.4,1.5.8,2.3,1.1-.6.2-1.1.3-1.6.3-2.4,0-5.3-1.6-8.2-3.5-2.9-1.9-5.7-4-8.3-6.5-5.3-4.8-10.2-10.6-14.7-17-4.5-6.3-8.6-12.9-12.6-19.2-2-3.1-3.9-6.2-5.4-9.3-1.5-3.1-2.6-6.2-3.5-9.4-1.7-6.5-2.9-13-4.3-18.9-1.4-6-2.6-11.5-3.8-16.6-.3-1.3-.6-2.5-.9-3.7-.1-.6-.3-1.2-.4-1.8-.1-.6-.3-1.3-.5-1.9-.9-2.3-2.1-4.6-4.5-5.7-1.2-.6-2.7-.3-3.7.3-.4.3-.8.6-1.1,1-.1-.3-.2-.6-.3-.9-.5-1.5-1.7-2.8-2.9-3.4-2.5-1.4-4.7-1.7-6.7-2.3-4.1-1.1-7.7-2-10.6-2.8-5.8-1.5-9-2.3-9-2.3,0,0,3.1,1.1,8.7,3.2,2.8,1,6.3,2.2,10.3,3.7,2,.8,4.3,1.3,6,2.5.2.2.4.3.6.5-1.6-.5-2.8-.6-4.3-1.1-2.4-.7-3.7-.9-3.7-.9,0,0,1.2.7,3.3,1.9,1.6.9,3.6,2.2,5.9,3.9v1.3c-.1,1.3-.1,2.5-.2,3.9-2.7-1.4-4.2-1.5-6.3-2-2.7-.7-4.1-.8-4.1-.8,0,0,1.4.6,3.8,1.8,1.7.9,3.9,2.1,6.3,3.8-.1,1.1-.2,2.1-.2,2.8v.7c-3.8-1-6.8-1.9-9.1-2.5-3-.9-4.6-1.4-4.6-1.4,0,0,1.5.9,4.3,2.4,2.3,1.2,5.4,2.7,9.3,4.3-.1,1.4-.2,2.9-.4,4.4v.3c-9.3-2.7-14.9-4-14.9-4,0,0,5.5,2.9,14.5,6.9-.2,1.6-.5,3.3-.8,4.9-8.5-3.1-13.8-4.5-13.8-4.5,0,0,4.9,3.1,13.2,7.5-.4,1.7-.8,3.4-1.3,5.1-3.7-.8-6.8-1.6-9.1-2.3-3.2-1-5-1.5-5-1.5,0,0,1.6,1,4.7,2.5,2.2,1.1,5.1,2.4,8.7,3.7-.1.1-.1.3-.1.4-.4,1.1-.8,2.3-1.3,3.4-10.8-2.2-17.3-3.1-17.3-3.1,0,0,6.1,2.5,16.2,5.8-.4.9-.9,1.8-1.4,2.7-11.8-2.6-18.9-3.7-18.9-3.7,0,0,6.5,2.6,17.3,6.3,0,.1-.1.1-.1.2-.2.4-.5.7-.7,1.1l-1,1.3-.2.3c-11.9-2.7-19-3.9-19-3.9,0,0,6.5,2.6,17.3,6.3l-.1.1.3.6.7,1.1.7,1.1.4.6.2.3.7,1.2c.2.3.4.7.5,1.1-5.7-2.1-10.6-3.2-14.3-3.8-2.5-.4-4.5-.6-5.8-.7s-2-.1-2-.1c0,0,.7.1,2,.4s3.3.7,5.7,1.4c4.2,1.2,9.8,3.2,16.2,6.5,1.1,2.7,2,5.5,2.6,8.4-12.4-4.4-19.8-6.7-19.8-6.7,0,0,7.7,4.1,20.4,10,.2,1.5.3,3,.4,4.6-4.6-2-8.7-2.9-11.7-3.4-3.8-.6-5.9-.6-5.9-.6,0,0,2.1.4,5.8,1.6,3.1,1,7.3,2.7,11.9,5.4,0,1.4-.2,2.9-.3,4.3-12.5-3.9-20.1-5.9-20.1-5.9,0,0,7.4,3.6,19.7,8.9-.1.4-.1.9-.2,1.3s-.1.7-.2,1.1c-4.8-1.5-8.8-2.5-11.7-3.2-3.5-.8-5.4-1.1-5.4-1.1,0,0,1.8.8,5.2,2.1,2.8,1.2,6.8,2.9,11.5,5-.2,1.3-.4,2.7-.5,4-10.2-2.5-16.3-3.6-16.3-3.6,0,0,6.1,2.8,16.2,6.6v1.2c0,1.3.2,2.5.4,3.8-11.5-3.8-18.4-5.7-18.4-5.7,0,0,7.3,3.7,19.4,9.1.6,1.6,1.3,3.1,2,4.5-3.6-1.4-6.8-2.1-9.2-2.5-3.4-.6-5.3-.6-5.3-.6,0,0,1.9.5,5.1,1.7,3,1.1,7.2,2.9,11.8,5.8,1,1.8,2,3.6,3,5.4.1.3.3.5.4.8-3.5-1.4-6.5-2.4-8.8-3-3.6-1-5.7-1.4-5.7-1.4,0,0,2,.8,5.4,2.4,2.8,1.3,6.7,3.3,11.1,5.9.8,1.7,1.5,3.3,2.1,4.9-10.6-3.9-17.1-5.8-17.1-5.8,0,0,7,4,18.4,9.6.4,1.4.8,2.7,1,4.1-9.3-3.5-15.1-5.2-15.1-5.2,0,0,5.8,3.7,15.4,8.7l.2-.4c.2,1.7.3,3.4.2,5.1-9.7-3.6-15.6-5.3-15.6-5.3,0,0,5.8,3.4,15.4,8.3-.2,1.9-.7,3.8-1.3,5.5-8.8-4.1-14.3-6.2-14.3-6.2,0,0,4.9,3.6,13.2,8.9-.6,1.3-1.3,2.4-2.2,3.5-3.5-.8-6.4-1.8-8.5-2.6-2.6-1-4-1.7-4-1.7,0,0,1.2,1.1,3.5,2.6,2,1.3,3.5,2.5,6.9,3.8-1,.9-2,1.7-3,2.3l-1.8.9.9-.8c-3.7-1.1-6.6-2.2-8.6-3.1-2-.9-3.1-1.4-3.1-1.4,0,0,.8.9,2.6,2.3,1.4,1.2,2.5,2.2,4.9,3.5-2.5-.2-7.1.1-9.8-.4-.1-3-.5-6-1.1-8.9-1.6-6.9-4.7-13.3-8.3-18.9-3.6-5.7-7.6-10.7-11.6-15.6-2-2.4-3.9-4.8-5.7-7.1-.4-.6-.8-1.1-1.1-1.6,2.1.4,4,.8,5.4,1.2,2.3.7,3.6,1.1,3.6,1.1,0,0-1.1-.9-3.2-2.2-1.6-1-4-2.1-6.9-3.1-.1-.7-.2-1.4-.2-2.3,0-.8-.1-1.5-.2-2.3,2.3.1,4.2.4,5.6.7,2,.4,3.1.7,3.1.7,0,0-.9-.7-2.8-1.7-1.4-.8-3.5-1.7-6.1-2.4-.2-1.9-.5-3.8-.8-5.6,2.3.6,4.2,1.3,5.7,1.9,2.1.9,3.3,1.6,3.3,1.6,0,0-.9-1-2.8-2.5-1.5-1.2-3.7-2.6-6.7-3.8-.3-1.4-.6-2.8-.9-4.1,2.9.7,5.3,1.5,7.1,2.1,2.4.9,3.8,1.4,3.8,1.4,0,0-1.1-.9-3.4-2.4-1.9-1.2-4.8-2.8-8.4-4.3-.6-1.9-1.2-3.8-1.8-5.7,2.4.9,4.5,1.6,6,2.2,2.4.9,3.8,1.5,3.8,1.5,0,0-1.1-.9-3.3-2.4-1.8-1.3-4.5-2.9-7.8-4.7-.5-1.2-1-2.4-1.5-3.6-.6-1.3-1.3-2.6-1.9-3.9,8.9,3.3,14.4,4.8,14.4,4.8,0,0-7.8-4.8-17-9.6-.5-.8-1-1.6-1.5-2.4,9.2,3.4,14.6,5.2,14.6,5.2,0,0-6.3-3.7-16.9-9.2-.7-1.5-1.1-3-1.1-4.5v-.5c2.4.7,4.5,1.3,6.3,1.8,4.7,1.4,7.2,2.2,7.2,2.2,0,0-2.4-1.3-6.9-3.3-1.8-.8-4-1.7-6.4-2.7.2-1.3.5-2.6.9-4h0c5,1.3,9.3,2.2,12.7,2.9,5.5,1.1,8.5,1.5,8.5,1.5,0,0-3-.9-8.4-2.6-3.3-1.1-7.4-2.4-12.3-4.1.4-1.8.8-3.5,1.2-5.2,4,.7,7.3,1.6,9.9,2.3,4.3,1.2,6.6,2,6.6,2,0,0-2.2-1.3-6.3-3.1-2.5-1.1-5.8-2.4-9.7-3.5.3-1.8.6-3.5.9-5.2,12.6,4.3,19.4,6.4,19.4,6.4,0,0-6.6-3.2-18.5-8.4l-.5-.9c.2-1.2.3-2.4.4-3.6,14.3,4.8,23,7.3,23,7.3,0,0-8.4-4.1-22.1-10.1.2-.5.4-.9.6-1.4.2-.4.3-.8.5-1.2,6.9,1.4,12.5,3,16.6,4.3,4.8,1.6,7.4,2.6,7.4,2.6,0,0-2.5-1.5-7.1-3.6-3.8-1.7-9.1-3.9-15.7-5.8.7-1.5,1.3-3.1,2-4.6,4.9,1.3,8.9,2.6,11.8,3.7,3.9,1.5,6,2.4,6,2.4,0,0-1.9-1.4-5.6-3.4-2.7-1.5-6.5-3.3-11.1-5.1.5-1.1,1-2.1,1.5-3.2.2-.4.3-.7.5-1,.8.2,1.6.3,2.4.5,1.9.4,3.6.8,5.2,1.2,3.2.8,6,1.7,8.2,2.4,4.5,1.5,6.9,2.5,6.9,2.5,0,0-2.2-1.4-6.6-3.6-2.2-1.1-4.8-2.3-8-3.4-1.6-.6-3.3-1.2-5.2-1.7-.5-.2-1.1-.3-1.7-.5.7-1.4,1.3-2.8,2-4.1,7,1.7,12.7,3.4,16.8,4.7,4.7,1.5,7.3,2.4,7.3,2.4,0,0-2.4-1.4-7-3.5-3.8-1.7-9.1-4-15.7-6.2.7-1.5,1.5-2.9,2.2-4.4,6.1,1.2,11.1,2.6,14.7,3.7,4.4,1.3,6.8,2.1,6.8,2.1,0,0-2.3-1.3-6.5-3.2-3.3-1.5-8-3.4-13.7-5.1.8-1.5,1.5-3,2.3-4.4,13.9,4.7,22.3,7.2,22.3,7.2,0,0-7.9-3.9-21-9.7.4-.8.9-1.7,1.3-2.5,15.5,3.8,24.9,5.5,24.9,5.5,0,0-8.9-3.5-23.4-8.3.3-.5.5-1,.8-1.5,11.1,1.8,19.8,4,25.9,5.6,6.2,1.7,9.6,2.8,9.6,2.8,0,0-3.3-1.6-9.4-3.9-5.8-2.2-14.1-5-24.5-7.3,1.5-2.9,3-5.7,4.5-8.4,19.8,5.5,31.8,8.4,31.8,8.4,0,0-11.5-4.5-30.4-11,.6-1.1,1.2-2.1,1.8-3.2,11,2.2,19.7,4.6,25.6,6.4,6,1.8,9.3,3,9.3,3,0,0-3.2-1.6-9.1-4-5.7-2.3-13.9-5.4-24.2-8.2.2-.3.3-.6.5-.8.5-.8,1-1.6,1.5-2.3,9.3,4,17.2,6,22.7,7.1,5.9,1.2,9.1,1.4,9.1,1.4,0,0-3.3-.7-9-2.5-5.3-1.7-12.7-4.3-21.1-8.6.9-1.3,1.8-2.5,2.7-3.7,18.6,6.8,29.9,10.4,29.9,10.4,0,0-10.6-5.2-28-12.8.9-1.1,1.9-2.2,2.9-3.2,10,3.3,17.9,6.3,23.3,8.5s8.4,3.4,8.4,3.4c0,0-2.8-1.7-8.1-4.5-5-2.6-12.1-6.2-21.2-9.8.9-.8,1.8-1.5,2.7-2.2.2-.1.3-.2.5-.4,9.1,5.3,17,8.4,22.6,10.2,5.8,1.9,9.1,2.7,9.1,2.7,0,0-3.2-1.2-8.8-3.7-5.1-2.3-12.2-5.9-20.2-11.1.4-.2.7-.5,1.1-.7,11.6,4,20.7,7.8,26.9,10.5,6.4,2.8,9.8,4.4,9.8,4.4,0,0-3.3-2.1-9.5-5.5-5.6-3.1-13.7-7.2-23.9-11.4,1-.5,2-1.1,2.9-1.6,3.9,1.2,8.2,2.9,12.8,4.9,5.7,2.6,11.8,5.8,18.3,9.1,6.6,3.3,13.1,6.3,19.3,8.3,6.2,2,12,3.2,17,3.5,2.4.1,4.6.1,6.6,0,4.2.5,9.5.7,15.6.1l-.3.6Z"/>
    <path class="cls-1" d="m1222.89,188.2c-8.7,3.9-18.3,7.9-28.4,12.5s-19.5,9.6-27.6,14.9c-8.1,5.3-15,10.7-20.2,15.9s-8.9,9.8-11.1,13.2c-1.2,1.6-1.9,3.1-2.5,3.9-.6.9-.8,1.4-.8,1.4,0,0,.4-.4,1.1-1.2s1.6-2.1,3-3.5c2.7-3,6.8-7.1,12.4-11.6,5.5-4.5,12.6-9.2,20.8-13.8,8.2-4.6,17.6-9.1,27.5-13.7,10-4.6,19.6-9,28.1-13.4s16-8.9,22-13.2c6-4.2,10.5-8.1,13.4-10.9,1.5-1.4,2.6-2.5,3.3-3.3.7-.8,1.1-1.2,1.1-1.2,0,0-.5.3-1.3,1-.9.6-2.1,1.6-3.7,2.8-3.3,2.4-8.2,5.5-14.4,9-6.4,3.5-14,7.3-22.7,11.2Z"/>
    <path class="cls-1" d="m1105.59,245.8c1.7-2.9,4.5-7,8.3-11.6s8.8-9.7,14.8-14.9c6-5.2,12.9-10.4,20.5-15.6s14.9-10.1,21.6-14.6c6.6-4.6,12.5-8.9,17.3-12.7,4.8-3.8,8.5-7.2,10.9-9.5,2.5-2.4,3.8-3.8,3.8-3.8,0,0-1.5,1.1-4.3,3s-6.9,4.6-12.1,7.8c-5.2,3.2-11.4,6.8-18.3,10.9s-14.5,8.6-22.3,14c-7.7,5.4-14.7,11.1-20.5,16.9-5.8,5.8-10.4,11.6-13.8,16.8-3.3,5.2-5.5,9.8-6.7,13-.7,1.6-1,2.9-1.3,3.7-.3.9-.4,1.3-.4,1.3,0,0,.2-.4.7-1.2.3-.8.8-2,1.8-3.5Z"/>
    <path class="cls-1" d="m1102.99,215.6c2.3-3,3.7-5,3.7-5,0,0-2.3.8-5.7,2.7-3.4,1.9-7.8,5.1-11.5,9.7-3.8,4.6-6,9.5-7.3,13.2-1.2,3.7-1.5,6.1-1.5,6.1,0,0,1.7-1.8,4.1-4.6,2.5-2.8,5.8-6.6,9.3-10.9,3.6-4.2,6.6-8.2,8.9-11.2Z"/>
    <path class="cls-1" d="m960.39,351.7c-1.7-2-3.1-3.5-4.2-4.5s-1.6-1.5-1.6-1.5c0,0,.3.7.9,2.1.6,1.3,1.4,3.2,2.4,5.5,2,4.6,4.6,10.9,7.4,17.8s5.3,13.2,7.1,17.9c.9,2.4,1.6,4.3,2.1,5.6.5,1.3.8,2.1.8,2.1,0,0,0-.8.1-2.2.1-1.4.1-3.5-.1-6.1-.3-5.1-1.5-12.2-4.5-19.5-3-7.4-7.1-13.3-10.4-17.2Z"/>
    <path class="cls-1" d="m959.39,375.3c.6,3.1,1.6,7.3,3.3,11.7.9,2.2,1.9,4.2,2.8,6,.9,1.7,1.6,3.2,2.1,4.6.5,1.3.7,2.5.7,3.4,0,.4,0,.8-.1,1v.4s.1-.1.3-.3c.2-.2.4-.4.7-.8.6-.8,1.2-2.1,1.5-3.9s.1-3.9-.3-6c-.5-2.1-1.1-4.3-2-6.5-1.8-4.5-4.2-8.1-6.2-10.7-2-2.5-3.5-3.9-3.5-3.9,0,0,.1,1.9.7,5Z"/>
    <path class="cls-1" d="m926.59,452.7c21.1,6,33.9,9.1,33.9,9.1,0,0-12.6-5-32.9-12.1l-1,3Z"/>
    <path class="cls-1" d="m941.39,412.5c-6.5,5.3-13.8,12.4-20.6,21.3-6.9,8.9-13,19.8-17.7,31.8-4.8,12-8.4,23.6-12.7,33.7-4.2,10.2-9.1,18.8-14.3,25.3-5.1,6.6-10.3,10.9-14.2,13.5-1.9,1.3-3.5,2.2-4.6,2.8-1.1.6-1.7.9-1.7.9,0,0,.6-.3,1.7-.8s2.8-1.3,4.8-2.5c4.1-2.4,9.7-6.5,15.2-13,5.6-6.4,11-15.1,15.5-25.3,4.6-10.2,8.5-21.8,13.2-33.6,4.7-11.8,10.4-22.5,16.9-31.3,6.4-8.9,13.3-16.2,19.5-21.7,6.2-5.6,11.7-9.6,15.6-12.2,1.9-1.3,3.5-2.3,4.5-2.9,1-.7,1.6-1,1.6-1,0,0-.6.3-1.7.9s-2.7,1.4-4.7,2.6c-4,2.5-9.7,6.2-16.3,11.5Z"/>
    <path class="cls-1" d="m1005.89,379.3c7.4-4.5,16.1-10.3,24.5-18.3,8.4-7.9,16.2-18.4,21.8-30.5,5.7-12.1,9-24.6,10.6-36s1.8-21.8,1.4-30.5-1.3-15.7-1.9-20.5c-.7-4.8-1.2-7.4-1.2-7.4,0,0,.3,2.7.7,7.5.4,4.8.8,11.8.8,20.4s-.6,18.9-2.5,30.1c-1.9,11.2-5.3,23.2-10.8,35-5.5,11.8-12.8,22-20.8,30s-16.3,14-23.5,18.8-13.2,8.4-17.3,10.9c-4.2,2.5-6.4,3.9-6.4,3.9,0,0,2.4-1.2,6.7-3.4,4.3-2.3,10.5-5.5,17.9-10Z"/>
  </g>
</svg>