<svg xmlns="http://www.w3.org/2000/svg" xmlns:xlink="http://www.w3.org/1999/xlink" version="1.1" width="256" height="256" viewBox="0 0 256 256" xml:space="preserve">

<defs>
</defs>
<g style="stroke: none; stroke-width: 0; stroke-dasharray: none; stroke-linecap: butt; stroke-linejoin: miter; stroke-miterlimit: 10; fill: none; fill-rule: nonzero; opacity: 1;" transform="translate(1.4065934065934016 1.4065934065934016) scale(2.81 2.81)" >
	<path d="M 45 90 c -14.979 0 -27.166 -12.187 -27.166 -27.165 V 45 c 0 -1.104 0.896 -2 2 -2 s 2 0.896 2 2 v 17.835 C 21.834 75.608 32.227 86 45 86 c 6.651 0 12.991 -2.866 17.393 -7.863 c 0.73 -0.828 1.992 -0.909 2.823 -0.179 c 0.828 0.73 0.908 1.994 0.179 2.823 C 60.233 86.64 52.8 90 45 90 z" style="stroke: none; stroke-width: 1; stroke-dasharray: none; stroke-linecap: butt; stroke-linejoin: miter; stroke-miterlimit: 10; fill: rgb(33, 95, 203); fill-rule: nonzero; opacity: 1;" transform=" matrix(1 0 0 1 0 0) " stroke-linecap="round" />
	<path d="M 70.165 47 c -1.104 0 -2 -0.896 -2 -2 V 27.166 C 68.165 14.392 57.773 4 45 4 c -6.604 0 -12.913 2.831 -17.308 7.768 c -0.734 0.826 -1.998 0.898 -2.824 0.164 c -0.825 -0.734 -0.898 -1.999 -0.164 -2.824 C 29.858 3.32 37.255 0 45 0 c 14.979 0 27.165 12.187 27.165 27.166 V 45 C 72.165 46.104 71.27 47 70.165 47 z" style="stroke: none; stroke-width: 1; stroke-dasharray: none; stroke-linecap: butt; stroke-linejoin: miter; stroke-miterlimit: 10; fill: rgb(33, 95, 203); fill-rule: nonzero; opacity: 1;" transform=" matrix(1 0 0 1 0 0) " stroke-linecap="round" />
	<path d="M 45 61.176 c -8.919 0 -16.176 -7.257 -16.176 -16.176 c 0 -8.919 7.257 -16.176 16.176 -16.176 c 1.104 0 2 0.896 2 2 s -0.896 2 -2 2 c -6.714 0 -12.176 5.462 -12.176 12.176 S 38.286 57.176 45 57.176 S 57.176 51.714 57.176 45 c 0 -1.104 0.896 -2 2 -2 s 2 0.896 2 2 C 61.176 53.919 53.919 61.176 45 61.176 z" style="stroke: none; stroke-width: 1; stroke-dasharray: none; stroke-linecap: butt; stroke-linejoin: miter; stroke-miterlimit: 10; fill: rgb(159, 159, 158); fill-rule: nonzero; opacity: 1;" transform=" matrix(1 0 0 1 0 0) " stroke-linecap="round" />
	<path d="M 62.835 72.165 H 45 c -1.104 0 -2 -0.896 -2 -2 s 0.896 -2 2 -2 h 17.835 C 75.608 68.165 86 57.773 86 45 c 0 -6.652 -2.866 -12.991 -7.863 -17.392 c -0.828 -0.73 -0.908 -1.994 -0.179 -2.823 c 0.73 -0.829 1.992 -0.909 2.823 -0.179 C 86.64 29.766 90 37.2 90 45 C 90 59.979 77.813 72.165 62.835 72.165 z" style="stroke: none; stroke-width: 1; stroke-dasharray: none; stroke-linecap: butt; stroke-linejoin: miter; stroke-miterlimit: 10; fill: rgb(95, 122, 187);
 fill-rule: nonzero; opacity: 1;" transform=" matrix(1 0 0 1 0 0) " stroke-linecap="round" />
	<path d="M 10.438 65.802 c -0.473 0 -0.948 -0.167 -1.33 -0.506 C 3.32 60.143 0 52.745 0 45 c 0 -14.979 12.187 -27.166 27.166 -27.166 H 45 c 1.104 0 2 0.896 2 2 s -0.896 2 -2 2 H 27.166 C 14.392 21.834 4 32.227 4 45 c 0 6.604 2.831 12.913 7.768 17.308 c 0.825 0.735 0.898 1.999 0.164 2.824 C 11.537 65.575 10.988 65.802 10.438 65.802 z" style="stroke: none; stroke-width: 1; stroke-dasharray: none; stroke-linecap: butt; stroke-linejoin: miter; stroke-miterlimit: 10; fill: rgb(95, 122, 187);
 fill-rule: nonzero; opacity: 1;" transform=" matrix(1 0 0 1 0 0) " stroke-linecap="round" />
</g>
</svg>